<svg width="76" height="24" viewBox="0 0 76 24" fill="none" xmlns="http://www.w3.org/2000/svg">
    <path d="M19 12H5M5 12L12 19M5 12L12 5" stroke="#122090" stroke-width="2" stroke-linecap="round" stroke-linejoin="round"/>
    <path d="M39.95 13.26H34.655V18H33.395V7.53H34.655V12.15H39.95V7.53H41.21V18H39.95V13.26ZM49.5055 18C49.0555 18 48.7305 17.88 48.5305 17.64C48.3405 17.4 48.2205 17.1 48.1705 16.74H48.0955C47.9255 17.22 47.6455 17.58 47.2555 17.82C46.8655 18.06 46.4005 18.18 45.8605 18.18C45.0405 18.18 44.4005 17.97 43.9405 17.55C43.4905 17.13 43.2655 16.56 43.2655 15.84C43.2655 15.11 43.5305 14.55 44.0605 14.16C44.6005 13.77 45.4355 13.575 46.5655 13.575H48.0955V12.81C48.0955 12.26 47.9455 11.84 47.6455 11.55C47.3455 11.26 46.8855 11.115 46.2655 11.115C45.7955 11.115 45.4005 11.22 45.0805 11.43C44.7705 11.64 44.5105 11.92 44.3005 12.27L43.5805 11.595C43.7905 11.175 44.1255 10.82 44.5855 10.53C45.0455 10.23 45.6255 10.08 46.3255 10.08C47.2655 10.08 47.9955 10.31 48.5155 10.77C49.0355 11.23 49.2955 11.87 49.2955 12.69V16.95H50.1805V18H49.5055ZM46.0555 17.16C46.3555 17.16 46.6305 17.125 46.8805 17.055C47.1305 16.985 47.3455 16.885 47.5255 16.755C47.7055 16.625 47.8455 16.475 47.9455 16.305C48.0455 16.135 48.0955 15.95 48.0955 15.75V14.475H46.5055C45.8155 14.475 45.3105 14.575 44.9905 14.775C44.6805 14.975 44.5255 15.265 44.5255 15.645V15.96C44.5255 16.34 44.6605 16.635 44.9305 16.845C45.2105 17.055 45.5855 17.16 46.0555 17.16ZM54.0832 18.18C53.2932 18.18 52.6632 18.045 52.1932 17.775C51.7232 17.505 51.3382 17.12 51.0382 16.62L51.9382 15.9C52.1382 16.28 52.4132 16.58 52.7632 16.8C53.1232 17.01 53.5632 17.115 54.0832 17.115C54.7132 17.115 55.1782 17 55.4782 16.77C55.7882 16.54 55.9432 16.245 55.9432 15.885V15.705C55.9432 15.315 55.8082 15.02 55.5382 14.82C55.2782 14.61 54.9082 14.505 54.4282 14.505H52.7782V13.5H54.2782C54.7582 13.5 55.1282 13.405 55.3882 13.215C55.6482 13.025 55.7782 12.755 55.7782 12.405V12.225C55.7782 11.895 55.6432 11.635 55.3732 11.445C55.1132 11.245 54.6732 11.145 54.0532 11.145C53.5432 11.145 53.1232 11.25 52.7932 11.46C52.4632 11.66 52.1982 11.935 51.9982 12.285L51.2032 11.61C51.4432 11.16 51.7932 10.795 52.2532 10.515C52.7232 10.225 53.3432 10.08 54.1132 10.08C55.1232 10.08 55.8682 10.265 56.3482 10.635C56.8282 11.005 57.0682 11.515 57.0682 12.165C57.0682 12.645 56.9382 13.025 56.6782 13.305C56.4282 13.585 56.0632 13.78 55.5832 13.89V13.95C56.1332 14.03 56.5432 14.23 56.8132 14.55C57.0932 14.86 57.2332 15.26 57.2332 15.75C57.2332 16.5 56.9482 17.095 56.3782 17.535C55.8182 17.965 55.0532 18.18 54.0832 18.18ZM64.9596 18C64.5096 18 64.1846 17.88 63.9846 17.64C63.7946 17.4 63.6746 17.1 63.6246 16.74H63.5496C63.3796 17.22 63.0996 17.58 62.7096 17.82C62.3196 18.06 61.8546 18.18 61.3146 18.18C60.4946 18.18 59.8546 17.97 59.3946 17.55C58.9446 17.13 58.7196 16.56 58.7196 15.84C58.7196 15.11 58.9846 14.55 59.5146 14.16C60.0546 13.77 60.8896 13.575 62.0196 13.575H63.5496V12.81C63.5496 12.26 63.3996 11.84 63.0996 11.55C62.7996 11.26 62.3396 11.115 61.7196 11.115C61.2496 11.115 60.8546 11.22 60.5346 11.43C60.2246 11.64 59.9646 11.92 59.7546 12.27L59.0346 11.595C59.2446 11.175 59.5796 10.82 60.0396 10.53C60.4996 10.23 61.0796 10.08 61.7796 10.08C62.7196 10.08 63.4496 10.31 63.9696 10.77C64.4896 11.23 64.7496 11.87 64.7496 12.69V16.95H65.6346V18H64.9596ZM61.5096 17.16C61.8096 17.16 62.0846 17.125 62.3346 17.055C62.5846 16.985 62.7996 16.885 62.9796 16.755C63.1596 16.625 63.2996 16.475 63.3996 16.305C63.4996 16.135 63.5496 15.95 63.5496 15.75V14.475H61.9596C61.2696 14.475 60.7646 14.575 60.4446 14.775C60.1346 14.975 59.9796 15.265 59.9796 15.645V15.96C59.9796 16.34 60.1146 16.635 60.3846 16.845C60.6646 17.055 61.0396 17.16 61.5096 17.16ZM66.5438 16.95H67.4288C67.7388 16.45 67.9888 15.825 68.1788 15.075C68.3688 14.325 68.4638 13.465 68.4638 12.495V10.26H73.6988V16.95H74.9888V20.1H73.8938V18H67.6388V20.1H66.5438V16.95ZM72.4988 16.95V11.31H69.6038V12.555C69.6038 13.585 69.5138 14.465 69.3338 15.195C69.1638 15.915 68.9588 16.5 68.7188 16.95H72.4988Z" fill="#122090"/>
</svg>
