<svg width="32" height="32" viewBox="0 0 32 32" fill="none" xmlns="http://www.w3.org/2000/svg">
    <g clip-path="url(#clip0_1069_28205)">
        <circle cx="16" cy="16" r="16" fill="white"/>
        <path d="M31.9992 16.1712C24.9141 16.3884 21.68 16.5713 19.0858 19.0855C16.5716 21.6797 16.4001 24.9138 16.1715 31.9989C24.872 31.9075 31.9078 24.8717 31.9992 16.1712Z" fill="black"/>
        <path d="M15.8286 31.9989C15.6115 24.9138 15.4285 21.6797 12.9144 19.0855C10.3202 16.5713 7.08606 16.3998 0.000976591 16.1712C0.0923249 24.8717 7.12813 31.9075 15.8286 31.9989Z" fill="black"/>
        <path d="M31.9992 15.8283C31.9078 7.12782 24.872 0.092019 16.1715 0.000671387C16.3887 7.08576 16.5716 10.3199 19.0858 12.9141C21.68 15.4282 24.9141 15.5998 31.9992 15.8283Z" fill="black"/>
        <path d="M15.8286 0.000671389C7.12813 0.0920191 0.0923235 7.12782 0.000976562 15.8283C7.08606 15.6112 10.3202 15.4282 12.9144 12.9141C15.4285 10.3199 15.6001 7.08576 15.8286 0.000671389Z" fill="black"/>
    </g>
    <defs>
        <clipPath id="clip0_1069_28205">
            <rect width="32" height="32" fill="white"/>
        </clipPath>
    </defs>
</svg>
