<svg width="40" height="40" viewBox="0 0 40 40" fill="none" xmlns="http://www.w3.org/2000/svg">
    <g clip-path="url(#clip0_1069_27833)">
        <circle cx="20" cy="20" r="20" fill="white"/>
        <path d="M39.9987 20.2139C31.1424 20.4853 27.0997 20.714 23.857 23.8568C20.7143 27.0995 20.4999 31.1421 20.2142 39.9985C31.0898 39.8843 39.8845 31.0895 39.9987 20.2139Z" fill="black"/>
        <path d="M19.7855 39.9985C19.5141 31.1421 19.2854 27.0995 16.1427 23.8568C12.9 20.714 8.85734 20.4996 0.000976598 20.2139C0.115162 31.0895 8.90991 39.8843 19.7855 39.9985Z" fill="black"/>
        <path d="M39.9987 19.7853C39.8845 8.90967 31.0898 0.114917 20.2142 0.000732422C20.4856 8.85709 20.7143 12.8997 23.857 16.1425C27.0997 19.2852 31.1424 19.4996 39.9987 19.7853Z" fill="black"/>
        <path d="M19.7855 0.000732424C8.90991 0.114917 0.11516 8.90967 0.000976562 19.7853C8.85734 19.5139 12.9 19.2852 16.1427 16.1425C19.2854 12.8997 19.4998 8.85709 19.7855 0.000732424Z" fill="black"/>
    </g>
    <defs>
        <clipPath id="clip0_1069_27833">
            <rect width="40" height="40" fill="white"/>
        </clipPath>
    </defs>
</svg>
