<svg width="40" height="40" viewBox="0 0 40 40" fill="none" xmlns="http://www.w3.org/2000/svg">
    <rect width="40" height="40" rx="20" fill="#FF7700"/>
    <path fill-rule="evenodd" clip-rule="evenodd" d="M24.1709 18.1828C23.1081 19.2456 21.6321 19.9147 19.9986 19.9147C18.3847 19.9147 16.889 19.2456 15.8263 18.1828C14.7635 17.1201 14.0944 15.644 14.0944 14.0105C14.0944 12.377 14.7635 10.901 15.8263 9.83822C16.889 8.77547 18.3651 8.10632 19.9986 8.10632C21.6321 8.10632 23.1081 8.77547 24.1709 9.83822C25.2337 10.901 25.9028 12.377 25.9028 14.0105C25.9028 15.644 25.2337 17.1201 24.1709 18.1828ZM19.9986 11.3143C19.2704 11.3143 18.6012 11.6095 18.1092 12.1015C17.6369 12.5935 17.322 13.2627 17.322 13.9908C17.322 14.719 17.6172 15.3882 18.1092 15.8802C18.5816 16.3722 19.2507 16.6674 19.9986 16.6674C20.7268 16.6674 21.3959 16.3722 21.8879 15.8802C22.38 15.4079 22.6752 14.7387 22.6752 13.9908C22.6752 13.2627 22.38 12.5935 21.8879 12.1015C21.4156 11.6095 20.7464 11.3143 19.9986 11.3143Z" fill="white"/>
    <path d="M26.2177 19.9344L27.9497 22.2961C28.0481 22.4142 28.0284 22.5717 27.8709 22.6701C26.4146 23.8706 24.722 24.6578 22.9507 25.0711L26.6114 31.5264C26.7098 31.7232 26.5917 31.9397 26.3752 31.9397H22.7933C22.6752 31.9397 22.5768 31.8609 22.5374 31.7625L19.9789 26.0551L17.4204 31.7625C17.3811 31.8806 17.2827 31.9397 17.1646 31.9397H13.5827C13.3859 31.9397 13.2481 31.7035 13.3465 31.5264L17.0072 25.0711C15.2359 24.6578 13.5433 23.8509 12.087 22.6701C11.9886 22.5717 11.9689 22.4142 12.0476 22.2961L13.7795 19.9344C13.8779 19.8164 14.0747 19.7967 14.1928 19.8951C15.8263 21.2924 17.8337 22.1977 19.9986 22.1977C22.1635 22.1977 24.1709 21.2924 25.8044 19.8951C25.9225 19.777 26.1193 19.7967 26.2177 19.9344Z" fill="white"/>
</svg>
