<svg width="32" height="32" viewBox="0 0 32 32" fill="none" xmlns="http://www.w3.org/2000/svg">
    <rect width="32" height="32" rx="16" fill="#FF7700"/>
    <path fill-rule="evenodd" clip-rule="evenodd" d="M19.5298 14.4624C18.6305 15.3617 17.3815 15.9279 15.9993 15.9279C14.6338 15.9279 13.3682 15.3617 12.4689 14.4624C11.5696 13.5632 11.0034 12.3142 11.0034 10.932C11.0034 9.54983 11.5696 8.30087 12.4689 7.40161C13.3682 6.50236 14.6171 5.93616 15.9993 5.93616C17.3815 5.93616 18.6305 6.50236 19.5298 7.40161C20.429 8.30087 20.9952 9.54983 20.9952 10.932C20.9952 12.3142 20.429 13.5632 19.5298 14.4624ZM15.9993 8.65058C15.3832 8.65058 14.817 8.90037 14.4006 9.31669C14.001 9.73302 13.7345 10.2992 13.7345 10.9154C13.7345 11.5315 13.9843 12.0977 14.4006 12.514C14.8003 12.9304 15.3665 13.1802 15.9993 13.1802C16.6155 13.1802 17.1817 12.9304 17.598 12.514C18.0143 12.1144 18.2641 11.5482 18.2641 10.9154C18.2641 10.2992 18.0143 9.73302 17.598 9.31669C17.1983 8.90037 16.6321 8.65058 15.9993 8.65058Z" fill="white"/>
    <path d="M21.2617 15.9446L22.7272 17.9429C22.8104 18.0428 22.7938 18.176 22.6605 18.2593C21.4282 19.2751 19.9961 19.9413 18.4973 20.291L21.5948 25.7531C21.678 25.9196 21.5781 26.1028 21.3949 26.1028H18.3641C18.2642 26.1028 18.1809 26.0362 18.1476 25.9529L15.9827 21.1236L13.8178 25.9529C13.7845 26.0529 13.7013 26.1028 13.6013 26.1028H10.5705C10.404 26.1028 10.2874 25.903 10.3707 25.7531L13.4681 20.291C11.9693 19.9413 10.5372 19.2585 9.30488 18.2593C9.22161 18.176 9.20496 18.0428 9.27157 17.9429L10.737 15.9446C10.8203 15.8446 10.9868 15.828 11.0867 15.9113C12.4689 17.0936 14.1675 17.8596 15.9994 17.8596C17.8312 17.8596 19.5298 17.0936 20.912 15.9113C21.0119 15.8113 21.1784 15.828 21.2617 15.9446Z" fill="white"/>
</svg>
