<svg width="32" height="32" viewBox="0 0 32 32" fill="none" xmlns="http://www.w3.org/2000/svg">
    <rect width="32" height="32" rx="16" fill="#419FD9"/>
    <rect width="32" height="32" rx="16" fill="url(#paint0_linear_1069_28206)"/>
    <path d="M7.19158 15.6473C11.8444 13.5775 14.9471 12.213 16.4995 11.5537C20.932 9.67132 21.853 9.34433 22.4533 9.33342C22.5853 9.33116 22.8806 9.36457 23.0718 9.523C23.2333 9.65677 23.2777 9.83748 23.2989 9.96432C23.3202 10.0912 23.3467 10.3801 23.3256 10.6058C23.0854 13.1827 22.0461 19.4359 21.5174 22.322C21.2936 23.5432 20.8531 23.9526 20.4266 23.9927C19.4997 24.0798 18.7959 23.3673 17.8982 22.7665C16.4934 21.8263 15.6998 21.241 14.3363 20.3236C12.7605 19.2633 13.782 18.6805 14.6801 17.7282C14.9151 17.4789 18.9989 13.6863 19.0779 13.3423C19.0878 13.2993 19.097 13.1389 19.0037 13.0542C18.9103 12.9695 18.7726 12.9984 18.6732 13.0215C18.5323 13.0541 16.2882 14.5686 11.9409 17.5648C11.3039 18.0114 10.7269 18.229 10.21 18.2176C9.64013 18.205 8.54391 17.8886 7.72898 17.6181C6.72944 17.2864 5.93502 17.111 6.0042 16.5476C6.04023 16.2542 6.43602 15.9541 7.19158 15.6473Z" fill="white"/>
    <defs>
        <linearGradient id="paint0_linear_1069_28206" x1="16" y1="0" x2="16" y2="31.7626" gradientUnits="userSpaceOnUse">
            <stop stop-color="#2AABEE"/>
            <stop offset="1" stop-color="#229ED9"/>
        </linearGradient>
    </defs>
</svg>
