<svg width="40" height="40" viewBox="0 0 40 40" fill="none" xmlns="http://www.w3.org/2000/svg">
    <rect width="40" height="40" rx="20" fill="#122090"/>
    <path d="M8.98947 19.5591C14.8056 16.9718 18.6839 15.2662 20.6244 14.4421C26.165 12.0891 27.3162 11.6804 28.0666 11.6668C28.2317 11.6639 28.6007 11.7057 28.8397 11.9037C29.0416 12.071 29.0971 12.2968 29.1237 12.4554C29.1502 12.6139 29.1833 12.9751 29.157 13.2573C28.8568 16.4783 27.5576 24.2949 26.8967 27.9025C26.617 29.429 26.0663 29.9408 25.5332 29.9909C24.3746 30.0997 23.4949 29.2091 22.3727 28.4581C20.6168 27.2828 19.6248 26.5512 17.9204 25.4044C15.9506 24.0791 17.2275 23.3507 18.3501 22.1602C18.6439 21.8487 23.7486 17.1079 23.8474 16.6778C23.8598 16.6241 23.8712 16.4236 23.7546 16.3177C23.6379 16.2118 23.4657 16.248 23.3415 16.2768C23.1654 16.3176 20.3603 18.2107 14.9261 21.956C14.1299 22.5143 13.4087 22.7862 12.7625 22.772C12.0502 22.7563 10.6799 22.3608 9.66122 22.0227C8.4118 21.608 7.41878 21.3888 7.50525 20.6845C7.55029 20.3177 8.04503 19.9425 8.98947 19.5591Z" fill="white"/>
</svg>
