<svg width="40" height="40" viewBox="0 0 40 40" fill="none" xmlns="http://www.w3.org/2000/svg">
    <rect width="40" height="40" rx="20" fill="#122090"/>
    <path d="M29.7943 10.1538C29.1328 9.5456 26.4545 7.59823 20.4843 7.57155C20.4843 7.57155 13.447 7.14473 10.0164 10.2925C8.10641 12.2026 7.43416 14.9929 7.3648 18.4609C7.29545 21.9235 7.20474 28.4165 13.463 30.1771H13.4684L13.463 32.8608C13.463 32.8608 13.4257 33.9492 14.1406 34.1679C15.0049 34.4347 15.5171 33.6077 16.3441 32.7167C16.7976 32.2259 17.4218 31.511 17.8967 30.9614C22.1756 31.3189 25.4674 30.4973 25.8409 30.3746C26.7052 30.0918 31.5977 29.4676 32.3926 22.9745C33.2143 16.2947 31.9925 12.0639 29.7943 10.1538ZM30.5199 22.505C29.8477 27.9257 25.8836 28.2671 25.1526 28.5019C24.8432 28.6032 21.9515 29.3235 18.3128 29.0834C18.3128 29.0834 15.6025 32.3539 14.7595 33.2023C14.6261 33.3356 14.4714 33.389 14.37 33.3623C14.226 33.325 14.1833 33.1542 14.1886 32.9035C14.1886 32.5407 14.21 28.4378 14.21 28.4378C14.2046 28.4378 14.2046 28.4378 14.21 28.4378C8.91204 26.9706 9.22148 21.4433 9.28017 18.5516C9.33886 15.6598 9.88306 13.2856 11.4996 11.6904C14.3967 9.06543 20.3776 9.4549 20.3776 9.4549C25.4247 9.47625 27.8416 10.9968 28.4018 11.5037C30.2638 13.1042 31.2135 16.919 30.5199 22.505Z" fill="white"/>
    <path d="M22.9442 18.6529C22.7682 18.6529 22.6188 18.5142 22.6081 18.3328C22.5494 17.1857 22.0106 16.6255 20.9115 16.5668C20.7248 16.5561 20.5807 16.3961 20.5914 16.2093C20.602 16.0226 20.7621 15.8786 20.9488 15.8892C22.4 15.9693 23.211 16.8016 23.2857 18.2954C23.2964 18.4822 23.1523 18.6422 22.9656 18.6476C22.9549 18.6529 22.9496 18.6529 22.9442 18.6529Z" fill="white"/>
    <path d="M24.6721 19.2293H24.6668C24.48 19.2239 24.3306 19.0692 24.336 18.8825C24.3626 17.7301 24.0319 16.7964 23.3276 16.0281C22.6287 15.2598 21.663 14.8437 20.3879 14.753C20.2011 14.737 20.0624 14.5769 20.0784 14.3902C20.0944 14.2034 20.2545 14.0647 20.4412 14.0807C21.8817 14.1874 23.0181 14.6889 23.8291 15.5746C24.6454 16.4656 25.0402 17.5807 25.0135 18.8985C25.0082 19.0852 24.8535 19.2293 24.6721 19.2293Z" fill="white"/>
    <path d="M26.444 19.9227C26.2573 19.9227 26.1079 19.7733 26.1079 19.5866C26.0919 17.5218 25.4996 15.9479 24.2939 14.7688C23.1041 13.6058 21.5942 13.0135 19.8176 12.9975C19.6308 12.9975 19.4814 12.8428 19.4814 12.6561C19.4814 12.4693 19.6362 12.3199 19.8176 12.3199C21.7756 12.336 23.4402 12.9922 24.758 14.2833C26.0812 15.5745 26.7588 17.3565 26.7801 19.5759C26.7855 19.768 26.6361 19.9227 26.444 19.9227C26.4493 19.9227 26.4493 19.9227 26.444 19.9227Z" fill="white"/>
    <path d="M20.9912 22.8304C20.9912 22.8304 21.4661 22.8731 21.7222 22.5583L22.2183 21.934C22.4584 21.6246 23.04 21.4272 23.6055 21.742C23.9203 21.918 24.4912 22.2702 24.8433 22.5316C25.2221 22.809 25.9904 23.4493 25.9957 23.4546C26.3639 23.764 26.4492 24.2175 26.1985 24.7031C26.1985 24.7031 26.1985 24.7084 26.1985 24.7137C25.9424 25.1672 25.5956 25.594 25.1634 25.9889C25.1581 25.9889 25.1581 25.9942 25.1528 25.9942C24.7953 26.293 24.4432 26.4637 24.1017 26.501C24.059 26.5117 24.011 26.5117 23.947 26.5117C23.7976 26.5117 23.6482 26.4904 23.4988 26.4424L23.4881 26.4264C22.9546 26.277 22.069 25.9035 20.5964 25.0872C19.6361 24.559 18.8411 24.0201 18.1635 23.4813C17.8061 23.1985 17.4433 22.8837 17.0698 22.5103C17.0591 22.4996 17.0431 22.4836 17.0324 22.4729C17.0218 22.4622 17.0058 22.4462 16.9951 22.4356C16.9844 22.4249 16.9684 22.4089 16.9578 22.3982C16.9471 22.3875 16.9311 22.3715 16.9204 22.3609C16.5523 21.9874 16.2322 21.6246 15.9494 21.2671C15.4105 20.5949 14.8717 19.7946 14.3435 18.8342C13.5272 17.3564 13.1537 16.4707 13.0043 15.9425L12.9883 15.9318C12.9403 15.7825 12.9189 15.6331 12.9189 15.4837C12.9189 15.4197 12.9189 15.3716 12.9296 15.329C12.9723 14.9822 13.143 14.6354 13.4365 14.2779C13.4365 14.2726 13.4418 14.2726 13.4418 14.2672C13.8366 13.8297 14.2634 13.4883 14.7169 13.2322C14.7169 13.2322 14.7223 13.2322 14.7276 13.2322C15.2078 12.9814 15.6613 13.0668 15.9761 13.4349C15.9761 13.4349 16.6216 14.2086 16.8991 14.5874C17.1605 14.9448 17.5126 15.5104 17.6887 15.8251C18.0035 16.3907 17.8061 16.9722 17.4966 17.2123L16.8724 17.7085C16.5576 17.9646 16.6003 18.4394 16.6003 18.4394C16.6003 18.4394 17.5233 21.95 20.9912 22.8304Z" fill="white"/>
</svg>
