<svg width="40" height="40" viewBox="0 0 40 40" fill="none" xmlns="http://www.w3.org/2000/svg">
    <rect width="40" height="40" rx="20" fill="#122090"/>
    <path d="M24.9307 6.66663H20.8902C16.9199 6.66663 13.5529 9.68862 13.5529 15.5559C13.5529 19.0757 15.1835 21.6708 18.0896 22.951L12.6668 32.7646C12.4893 33.085 12.6668 33.3333 12.9502 33.3333H15.4668C15.6794 33.3333 15.8218 33.2625 15.8925 33.085L20.8192 23.449H22.5915V33.085C22.5915 33.191 22.6974 33.3333 22.8392 33.3333H25.0372C25.2498 33.3333 25.3206 33.2267 25.3206 33.0499V7.0221C25.3207 6.77319 25.1791 6.66663 24.9307 6.66663ZM22.5914 21.1736H21.1027C18.7636 21.1736 16.4954 19.4669 16.4954 15.2003C16.4954 10.7552 18.6219 8.94204 20.7835 8.94204H22.5915V21.1736H22.5914Z" fill="white"/>
</svg>
