<svg width="32" height="32" viewBox="0 0 32 32" fill="none" xmlns="http://www.w3.org/2000/svg">
    <rect width="32" height="32" rx="16" fill="#FF0000"/>
    <path d="M19.9452 5.33331H16.7128C13.5365 5.33331 10.8429 7.75091 10.8429 12.4447C10.8429 15.2606 12.1474 17.3367 14.4723 18.3608L10.134 26.2117C9.99202 26.468 10.134 26.6666 10.3607 26.6666H12.374C12.5441 26.6666 12.658 26.61 12.7146 26.468L16.6559 18.7592H18.0738V26.468C18.0738 26.5528 18.1585 26.6666 18.272 26.6666H20.0303C20.2004 26.6666 20.2571 26.5814 20.2571 26.4399V5.61769C20.2572 5.41857 20.1439 5.33331 19.9452 5.33331ZM18.0737 16.9389H16.8828C15.0115 16.9389 13.1969 15.5736 13.1969 12.1603C13.1969 8.60414 14.8981 7.15364 16.6274 7.15364H18.0738V16.9389H18.0737Z" fill="white"/>
</svg>
