<svg width="40" height="40" viewBox="0 0 40 40" fill="none" xmlns="http://www.w3.org/2000/svg">
    <path d="M10 11.6C10 11.0399 10 10.7599 10.109 10.546C10.2049 10.3578 10.3578 10.2049 10.546 10.109C10.7599 10 11.0399 10 11.6 10H16.4C16.9601 10 17.2401 10 17.454 10.109C17.6422 10.2049 17.7951 10.3578 17.891 10.546C18 10.7599 18 11.0399 18 11.6V16.4C18 16.9601 18 17.2401 17.891 17.454C17.7951 17.6422 17.6422 17.7951 17.454 17.891C17.2401 18 16.9601 18 16.4 18H11.6C11.0399 18 10.7599 18 10.546 17.891C10.3578 17.7951 10.2049 17.6422 10.109 17.454C10 17.2401 10 16.9601 10 16.4V11.6Z" stroke="white" stroke-width="2"/>
    <path d="M10 23.6C10 23.0399 10 22.7599 10.109 22.546C10.2049 22.3578 10.3578 22.2049 10.546 22.109C10.7599 22 11.0399 22 11.6 22H16.4C16.9601 22 17.2401 22 17.454 22.109C17.6422 22.2049 17.7951 22.3578 17.891 22.546C18 22.7599 18 23.0399 18 23.6V28.4C18 28.9601 18 29.2401 17.891 29.454C17.7951 29.6422 17.6422 29.7951 17.454 29.891C17.2401 30 16.9601 30 16.4 30H11.6C11.0399 30 10.7599 30 10.546 29.891C10.3578 29.7951 10.2049 29.6422 10.109 29.454C10 29.2401 10 28.9601 10 28.4V23.6Z" stroke="white" stroke-width="2"/>
    <path d="M22 11.6C22 11.0399 22 10.7599 22.109 10.546C22.2049 10.3578 22.3578 10.2049 22.546 10.109C22.7599 10 23.0399 10 23.6 10H28.4C28.9601 10 29.2401 10 29.454 10.109C29.6422 10.2049 29.7951 10.3578 29.891 10.546C30 10.7599 30 11.0399 30 11.6V16.4C30 16.9601 30 17.2401 29.891 17.454C29.7951 17.6422 29.6422 17.7951 29.454 17.891C29.2401 18 28.9601 18 28.4 18H23.6C23.0399 18 22.7599 18 22.546 17.891C22.3578 17.7951 22.2049 17.6422 22.109 17.454C22 17.2401 22 16.9601 22 16.4V11.6Z" stroke="white" stroke-width="2"/>
    <path d="M22 23.6C22 23.0399 22 22.7599 22.109 22.546C22.2049 22.3578 22.3578 22.2049 22.546 22.109C22.7599 22 23.0399 22 23.6 22H28.4C28.9601 22 29.2401 22 29.454 22.109C29.6422 22.2049 29.7951 22.3578 29.891 22.546C30 22.7599 30 23.0399 30 23.6V28.4C30 28.9601 30 29.2401 29.891 29.454C29.7951 29.6422 29.6422 29.7951 29.454 29.891C29.2401 30 28.9601 30 28.4 30H23.6C23.0399 30 22.7599 30 22.546 29.891C22.3578 29.7951 22.2049 29.6422 22.109 29.454C22 29.2401 22 28.9601 22 28.4V23.6Z" stroke="white" stroke-width="2"/>
</svg>
