<svg width="24" height="24" viewBox="0 0 24 24" fill="none" xmlns="http://www.w3.org/2000/svg">
    <path d="M4.19158 11.314C8.84445 9.24417 11.9471 7.87964 13.4995 7.22037C17.932 5.338 18.853 5.01102 19.4533 5.0001C19.5853 4.99785 19.8806 5.03125 20.0718 5.18968C20.2333 5.32346 20.2777 5.50417 20.2989 5.63101C20.3202 5.75784 20.3467 6.04677 20.3256 6.27253C20.0854 8.84934 19.0461 15.1026 18.5174 17.9887C18.2936 19.2099 17.8531 19.6193 17.4266 19.6594C16.4997 19.7465 15.7959 19.034 14.8982 18.4332C13.4934 17.493 12.6998 16.9077 11.3363 15.9902C9.76046 14.93 10.782 14.3472 11.6801 13.3949C11.9151 13.1456 15.9989 9.35303 16.0779 9.00898C16.0878 8.96595 16.097 8.80556 16.0037 8.72086C15.9103 8.63617 15.7726 8.66513 15.6732 8.68817C15.5323 8.72081 13.2882 10.2353 8.94088 13.2315C8.3039 13.6781 7.72694 13.8957 7.21001 13.8843C6.64013 13.8717 5.54391 13.5553 4.72898 13.2848C3.72944 12.9531 2.93502 12.7777 3.0042 12.2143C3.04023 11.9209 3.43602 11.6207 4.19158 11.314Z" fill="#122090"/>
</svg>
