<svg width="116" height="24" viewBox="0 0 116 24" fill="none" xmlns="http://www.w3.org/2000/svg">
<path d="M1.488 7.332H9.6V18.5H8.256V8.516H2.832V18.5H1.488V7.332ZM15.5738 18.692C15.0191 18.692 14.5124 18.5907 14.0538 18.388C13.5951 18.1853 13.2004 17.8973 12.8698 17.524C12.5498 17.14 12.2991 16.6867 12.1178 16.164C11.9364 15.6307 11.8458 15.0333 11.8458 14.372C11.8458 13.7213 11.9364 13.1293 12.1178 12.596C12.2991 12.0627 12.5498 11.6093 12.8698 11.236C13.2004 10.852 13.5951 10.5587 14.0538 10.356C14.5124 10.1533 15.0191 10.052 15.5738 10.052C16.1284 10.052 16.6298 10.1533 17.0778 10.356C17.5364 10.5587 17.9311 10.852 18.2618 11.236C18.5924 11.6093 18.8484 12.0627 19.0298 12.596C19.2111 13.1293 19.3018 13.7213 19.3018 14.372C19.3018 15.0333 19.2111 15.6307 19.0298 16.164C18.8484 16.6867 18.5924 17.14 18.2618 17.524C17.9311 17.8973 17.5364 18.1853 17.0778 18.388C16.6298 18.5907 16.1284 18.692 15.5738 18.692ZM15.5738 17.556C16.2671 17.556 16.8324 17.3427 17.2698 16.916C17.7071 16.4893 17.9258 15.8387 17.9258 14.964V13.78C17.9258 12.9053 17.7071 12.2547 17.2698 11.828C16.8324 11.4013 16.2671 11.188 15.5738 11.188C14.8804 11.188 14.3151 11.4013 13.8778 11.828C13.4404 12.2547 13.2218 12.9053 13.2218 13.78V14.964C13.2218 15.8387 13.4404 16.4893 13.8778 16.916C14.3151 17.3427 14.8804 17.556 15.5738 17.556ZM20.1436 17.38H21.0876C21.4183 16.8467 21.685 16.18 21.8876 15.38C22.0903 14.58 22.1916 13.6627 22.1916 12.628V10.244H27.7756V17.38H29.1516V20.74H27.9836V18.5H21.3116V20.74H20.1436V17.38ZM26.4956 17.38V11.364H23.4076V12.692C23.4076 13.7907 23.3116 14.7293 23.1196 15.508C22.9383 16.276 22.7196 16.9 22.4636 17.38H26.4956ZM30.9225 10.244H32.2025V11.588H32.2665C32.4798 11.0653 32.7892 10.6813 33.1945 10.436C33.6105 10.18 34.1065 10.052 34.6825 10.052C35.1945 10.052 35.6585 10.1533 36.0745 10.356C36.4905 10.5587 36.8425 10.8467 37.1305 11.22C37.4292 11.5933 37.6532 12.0467 37.8025 12.58C37.9625 13.1133 38.0425 13.7107 38.0425 14.372C38.0425 15.0333 37.9625 15.6307 37.8025 16.164C37.6532 16.6973 37.4292 17.1507 37.1305 17.524C36.8425 17.8973 36.4905 18.1853 36.0745 18.388C35.6585 18.5907 35.1945 18.692 34.6825 18.692C33.5625 18.692 32.7572 18.18 32.2665 17.156H32.2025V21.7H30.9225V10.244ZM34.3305 17.54C35.0558 17.54 35.6265 17.316 36.0425 16.868C36.4585 16.4093 36.6665 15.812 36.6665 15.076V13.668C36.6665 12.932 36.4585 12.34 36.0425 11.892C35.6265 11.4333 35.0558 11.204 34.3305 11.204C34.0425 11.204 33.7652 11.2467 33.4985 11.332C33.2425 11.4067 33.0185 11.5133 32.8265 11.652C32.6345 11.7907 32.4798 11.9613 32.3625 12.164C32.2558 12.356 32.2025 12.564 32.2025 12.788V15.86C32.2025 16.1267 32.2558 16.3667 32.3625 16.58C32.4798 16.7827 32.6345 16.9587 32.8265 17.108C33.0185 17.2467 33.2425 17.3533 33.4985 17.428C33.7652 17.5027 34.0425 17.54 34.3305 17.54ZM43.3238 18.692C42.7691 18.692 42.2624 18.5907 41.8038 18.388C41.3451 18.1853 40.9504 17.8973 40.6198 17.524C40.2998 17.14 40.0491 16.6867 39.8678 16.164C39.6864 15.6307 39.5958 15.0333 39.5958 14.372C39.5958 13.7213 39.6864 13.1293 39.8678 12.596C40.0491 12.0627 40.2998 11.6093 40.6198 11.236C40.9504 10.852 41.3451 10.5587 41.8038 10.356C42.2624 10.1533 42.7691 10.052 43.3238 10.052C43.8784 10.052 44.3798 10.1533 44.8278 10.356C45.2864 10.5587 45.6811 10.852 46.0118 11.236C46.3424 11.6093 46.5984 12.0627 46.7798 12.596C46.9611 13.1293 47.0518 13.7213 47.0518 14.372C47.0518 15.0333 46.9611 15.6307 46.7798 16.164C46.5984 16.6867 46.3424 17.14 46.0118 17.524C45.6811 17.8973 45.2864 18.1853 44.8278 18.388C44.3798 18.5907 43.8784 18.692 43.3238 18.692ZM43.3238 17.556C44.0171 17.556 44.5824 17.3427 45.0198 16.916C45.4571 16.4893 45.6758 15.8387 45.6758 14.964V13.78C45.6758 12.9053 45.4571 12.2547 45.0198 11.828C44.5824 11.4013 44.0171 11.188 43.3238 11.188C42.6304 11.188 42.0651 11.4013 41.6278 11.828C41.1904 12.2547 40.9718 12.9053 40.9718 13.78V14.964C40.9718 15.8387 41.1904 16.4893 41.6278 16.916C42.0651 17.3427 42.6304 17.556 43.3238 17.556ZM52.419 18.692C51.843 18.692 51.3257 18.596 50.867 18.404C50.4083 18.212 50.019 17.9133 49.699 17.508C49.379 17.1027 49.1283 16.58 48.947 15.94C48.7763 15.2893 48.691 14.5053 48.691 13.588C48.691 12.404 48.7657 11.3907 48.915 10.548C49.075 9.70533 49.3257 9.012 49.667 8.468C50.0083 7.924 50.4403 7.51867 50.963 7.252C51.4963 6.97467 52.1417 6.804 52.899 6.74L55.491 6.532V7.828L52.739 8.052C52.2697 8.09467 51.875 8.18533 51.555 8.324C51.235 8.46267 50.9683 8.68133 50.755 8.98C50.5523 9.268 50.3923 9.652 50.275 10.132C50.1683 10.612 50.0883 11.2093 50.035 11.924H50.099C50.3443 11.3587 50.659 10.9373 51.043 10.66C51.4377 10.3827 51.955 10.244 52.595 10.244C53.1177 10.244 53.5977 10.34 54.035 10.532C54.4723 10.724 54.8457 11.0013 55.155 11.364C55.4643 11.716 55.7043 12.1587 55.875 12.692C56.0563 13.2147 56.147 13.812 56.147 14.484C56.147 15.1133 56.0563 15.684 55.875 16.196C55.6937 16.708 55.4377 17.1507 55.107 17.524C54.7763 17.8973 54.3817 18.1853 53.923 18.388C53.475 18.5907 52.9737 18.692 52.419 18.692ZM52.483 17.556C52.8137 17.556 53.1177 17.5027 53.395 17.396C53.6723 17.2893 53.9123 17.1293 54.115 16.916C54.3177 16.7027 54.4777 16.4413 54.595 16.132C54.7123 15.8227 54.771 15.46 54.771 15.044V14.036C54.771 13.14 54.5523 12.4733 54.115 12.036C53.6777 11.5987 53.091 11.38 52.355 11.38C51.587 11.38 51.011 11.572 50.627 11.956C50.2537 12.3293 50.067 12.82 50.067 13.428V14.9C50.067 15.796 50.2857 16.4627 50.723 16.9C51.1603 17.3373 51.747 17.556 52.483 17.556ZM58.2663 10.244H59.5463V13.684H63.6743V10.244H64.9543V18.5H63.6743V14.804H59.5463V18.5H58.2663V10.244ZM70.7765 18.692C70.2112 18.692 69.6992 18.5907 69.2405 18.388C68.7925 18.1853 68.4032 17.8973 68.0725 17.524C67.7525 17.14 67.5018 16.6867 67.3205 16.164C67.1498 15.6307 67.0645 15.0333 67.0645 14.372C67.0645 13.7213 67.1498 13.1293 67.3205 12.596C67.5018 12.0627 67.7525 11.6093 68.0725 11.236C68.4032 10.852 68.7925 10.5587 69.2405 10.356C69.6992 10.1533 70.2112 10.052 70.7765 10.052C71.3312 10.052 71.8272 10.1533 72.2645 10.356C72.7018 10.5587 73.0752 10.8413 73.3845 11.204C73.6938 11.556 73.9285 11.9773 74.0885 12.468C74.2592 12.9587 74.3445 13.4973 74.3445 14.084V14.692H68.4085V15.076C68.4085 15.428 68.4618 15.7587 68.5685 16.068C68.6858 16.3667 68.8458 16.628 69.0485 16.852C69.2618 17.076 69.5178 17.252 69.8165 17.38C70.1258 17.508 70.4725 17.572 70.8565 17.572C71.3792 17.572 71.8325 17.4493 72.2165 17.204C72.6112 16.9587 72.9152 16.6067 73.1285 16.148L74.0405 16.804C73.7738 17.3693 73.3578 17.828 72.7925 18.18C72.2272 18.5213 71.5552 18.692 70.7765 18.692ZM70.7765 11.124C70.4245 11.124 70.1045 11.188 69.8165 11.316C69.5285 11.4333 69.2778 11.604 69.0645 11.828C68.8618 12.052 68.7018 12.3187 68.5845 12.628C68.4672 12.9267 68.4085 13.2573 68.4085 13.62V13.732H72.9685V13.556C72.9685 12.82 72.7658 12.2333 72.3605 11.796C71.9658 11.348 71.4378 11.124 70.7765 11.124ZM79.5578 18.692C78.9924 18.692 78.4804 18.5907 78.0218 18.388C77.5738 18.1853 77.1844 17.8973 76.8538 17.524C76.5338 17.14 76.2831 16.6867 76.1018 16.164C75.9311 15.6307 75.8458 15.0333 75.8458 14.372C75.8458 13.7213 75.9311 13.1293 76.1018 12.596C76.2831 12.0627 76.5338 11.6093 76.8538 11.236C77.1844 10.852 77.5738 10.5587 78.0218 10.356C78.4804 10.1533 78.9924 10.052 79.5578 10.052C80.1124 10.052 80.6084 10.1533 81.0458 10.356C81.4831 10.5587 81.8564 10.8413 82.1658 11.204C82.4751 11.556 82.7098 11.9773 82.8698 12.468C83.0404 12.9587 83.1258 13.4973 83.1258 14.084V14.692H77.1898V15.076C77.1898 15.428 77.2431 15.7587 77.3498 16.068C77.4671 16.3667 77.6271 16.628 77.8298 16.852C78.0431 17.076 78.2991 17.252 78.5978 17.38C78.9071 17.508 79.2538 17.572 79.6378 17.572C80.1604 17.572 80.6138 17.4493 80.9978 17.204C81.3924 16.9587 81.6964 16.6067 81.9098 16.148L82.8218 16.804C82.5551 17.3693 82.1391 17.828 81.5738 18.18C81.0084 18.5213 80.3364 18.692 79.5578 18.692ZM79.5578 11.124C79.2058 11.124 78.8858 11.188 78.5978 11.316C78.3098 11.4333 78.0591 11.604 77.8458 11.828C77.6431 12.052 77.4831 12.3187 77.3658 12.628C77.2484 12.9267 77.1898 13.2573 77.1898 13.62V13.732H81.7498V13.556C81.7498 12.82 81.5471 12.2333 81.1418 11.796C80.7471 11.348 80.2191 11.124 79.5578 11.124Z" fill="#122090"/>
<path d="M99 17L109 7M109 7H99M109 7V17" stroke="#122090" stroke-width="2" stroke-linecap="round" stroke-linejoin="round"/>
</svg>
