<svg width="26" height="30" viewBox="0 0 26 30" fill="none" xmlns="http://www.w3.org/2000/svg">
<path d="M21 9.66699C23.2091 9.66699 25 7.87613 25 5.66699C25 3.45785 23.2091 1.66699 21 1.66699C18.7909 1.66699 17 3.45785 17 5.66699C17 7.87613 18.7909 9.66699 21 9.66699Z" fill="#122090"/>
<path d="M5 19.0003C7.20914 19.0003 9 17.2095 9 15.0003C9 12.7912 7.20914 11.0003 5 11.0003C2.79086 11.0003 1 12.7912 1 15.0003C1 17.2095 2.79086 19.0003 5 19.0003Z" fill="#122090"/>
<path d="M21 28.3337C23.2091 28.3337 25 26.5428 25 24.3337C25 22.1245 23.2091 20.3337 21 20.3337C18.7909 20.3337 17 22.1245 17 24.3337C17 26.5428 18.7909 28.3337 21 28.3337Z" fill="#122090"/>
<path d="M8.45333 17.0137L17.56 22.3203M17.5467 7.68033L8.45333 12.987M25 5.66699C25 7.87613 23.2091 9.66699 21 9.66699C18.7909 9.66699 17 7.87613 17 5.66699C17 3.45785 18.7909 1.66699 21 1.66699C23.2091 1.66699 25 3.45785 25 5.66699ZM9 15.0003C9 17.2095 7.20914 19.0003 5 19.0003C2.79086 19.0003 1 17.2095 1 15.0003C1 12.7912 2.79086 11.0003 5 11.0003C7.20914 11.0003 9 12.7912 9 15.0003ZM25 24.3337C25 26.5428 23.2091 28.3337 21 28.3337C18.7909 28.3337 17 26.5428 17 24.3337C17 22.1245 18.7909 20.3337 21 20.3337C23.2091 20.3337 25 22.1245 25 24.3337Z" stroke="#122090" stroke-width="2" stroke-linecap="round" stroke-linejoin="round"/>
</svg>
