<svg width="40" height="40" viewBox="0 0 40 40" fill="none" xmlns="http://www.w3.org/2000/svg">
    <path d="M11.4135 18.7445C10.8181 18.513 10.5204 18.3972 10.4335 18.2304C10.3582 18.0858 10.3581 17.9135 10.4333 17.7689C10.52 17.602 10.8175 17.4858 11.4126 17.2536L28.3003 10.6633C28.8375 10.4536 29.1061 10.3488 29.2777 10.4062C29.4268 10.456 29.5437 10.5729 29.5935 10.722C29.6509 10.8936 29.5461 11.1622 29.3364 11.6994L22.7461 28.5871C22.5139 29.1822 22.3977 29.4797 22.2308 29.5664C22.0862 29.6416 21.9139 29.6415 21.7693 29.5662C21.6025 29.4793 21.4867 29.1816 21.2552 28.5862L18.6271 21.8282C18.5801 21.7074 18.5566 21.647 18.5203 21.5961C18.4881 21.551 18.4487 21.5115 18.4036 21.4794C18.3527 21.4431 18.2923 21.4196 18.1715 21.3726L11.4135 18.7445Z" stroke="white" stroke-width="2" stroke-linecap="round" stroke-linejoin="round"/>
</svg>
