<svg width="192" height="47" viewBox="0 0 192 47" fill="none" xmlns="http://www.w3.org/2000/svg">
    <g clip-path="url(#clip0_1110_470)">
        <path fill-rule="evenodd" clip-rule="evenodd" d="M19.5556 41.1C29.0598 41.1 36.7644 33.2202 36.7644 23.5C36.7644 13.7798 29.0598 5.9 19.5556 5.9C10.0514 5.9 2.34667 13.7798 2.34667 23.5C2.34667 33.2202 10.0514 41.1 19.5556 41.1ZM19.5556 43.5C30.3558 43.5 39.1111 34.5457 39.1111 23.5C39.1111 12.4543 30.3558 3.5 19.5556 3.5C8.75532 3.5 0 12.4543 0 23.5C0 34.5457 8.75532 43.5 19.5556 43.5Z" fill="white"/>
        <path fill-rule="evenodd" clip-rule="evenodd" d="M20 34.878C25.837 34.878 30.5689 29.983 30.5689 23.9446C30.5689 17.9063 25.837 13.0113 20 13.0113C14.163 13.0113 9.43109 17.9063 9.43109 23.9446C9.43109 29.983 14.163 34.878 20 34.878ZM20 37.278C27.1183 37.278 32.8889 31.3084 32.8889 23.9446C32.8889 16.5808 27.1183 10.6113 20 10.6113C12.8816 10.6113 7.11108 16.5808 7.11108 23.9446C7.11108 31.3084 12.8816 37.278 20 37.278Z" fill="white"/>
        <path fill-rule="evenodd" clip-rule="evenodd" d="M19.9997 27.7663C22.3561 27.7663 24.2664 25.8561 24.2664 23.4997C24.2664 21.1432 22.3561 19.233 19.9997 19.233C17.6433 19.233 15.733 21.1432 15.733 23.4997C15.733 25.8561 17.6433 27.7663 19.9997 27.7663ZM19.9997 30.1663C23.6816 30.1663 26.6663 27.1816 26.6663 23.4997C26.6663 19.8178 23.6816 16.833 19.9997 16.833C16.3178 16.833 13.333 19.8178 13.333 23.4997C13.333 27.1816 16.3178 30.1663 19.9997 30.1663Z" fill="white"/>
    </g>
    <path d="M54.565 9.665H50.782V13.5H49.066V4.426H50.782V8.144H54.565V4.426H56.281V13.5H54.565V9.665ZM61.9718 13.656C61.3738 13.656 60.8321 13.5563 60.3468 13.357C59.8614 13.1577 59.4454 12.8587 59.0988 12.46C58.7608 12.0613 58.4964 11.5717 58.3058 10.991C58.1151 10.4103 58.0198 9.73433 58.0198 8.963C58.0198 8.20033 58.1151 7.52867 58.3058 6.948C58.4964 6.35867 58.7608 5.86467 59.0988 5.466C59.4454 5.06733 59.8614 4.76833 60.3468 4.569C60.8321 4.36967 61.3738 4.27 61.9718 4.27C62.5698 4.27 63.1114 4.36967 63.5968 4.569C64.0821 4.76833 64.4981 5.06733 64.8448 5.466C65.1914 5.86467 65.4558 6.35867 65.6378 6.948C65.8284 7.52867 65.9238 8.20033 65.9238 8.963C65.9238 9.73433 65.8284 10.4103 65.6378 10.991C65.4558 11.5717 65.1914 12.0613 64.8448 12.46C64.4981 12.8587 64.0821 13.1577 63.5968 13.357C63.1114 13.5563 62.5698 13.656 61.9718 13.656ZM61.9718 12.135C62.6218 12.135 63.1374 11.9183 63.5188 11.485C63.9088 11.0517 64.1038 10.445 64.1038 9.665V8.261C64.1038 7.481 63.9088 6.87433 63.5188 6.441C63.1374 6.00767 62.6218 5.791 61.9718 5.791C61.3218 5.791 60.8018 6.00767 60.4118 6.441C60.0304 6.87433 59.8398 7.481 59.8398 8.261V9.665C59.8398 10.445 60.0304 11.0517 60.4118 11.485C60.8018 11.9183 61.3218 12.135 61.9718 12.135ZM67.6646 4.426H71.8636C72.2363 4.426 72.57 4.48233 72.8646 4.595C73.168 4.70767 73.4236 4.86367 73.6316 5.063C73.8396 5.26233 73.9956 5.50933 74.0996 5.804C74.2123 6.09 74.2686 6.40633 74.2686 6.753C74.2686 7.09967 74.221 7.39433 74.1256 7.637C74.039 7.871 73.9176 8.066 73.7616 8.222C73.6143 8.378 73.441 8.495 73.2416 8.573C73.051 8.651 72.8516 8.69433 72.6436 8.703V8.781C72.843 8.781 73.0553 8.82 73.2806 8.898C73.5146 8.976 73.727 9.10167 73.9176 9.275C74.117 9.43967 74.2816 9.65633 74.4116 9.925C74.5416 10.185 74.6066 10.51 74.6066 10.9C74.6066 11.264 74.546 11.6063 74.4246 11.927C74.312 12.239 74.1516 12.512 73.9436 12.746C73.7356 12.98 73.4886 13.1663 73.2026 13.305C72.9166 13.435 72.6046 13.5 72.2666 13.5H67.6646V4.426ZM69.3806 12.044H71.7726C72.102 12.044 72.3576 11.9617 72.5396 11.797C72.7216 11.6237 72.8126 11.3767 72.8126 11.056V10.614C72.8126 10.2933 72.7216 10.0463 72.5396 9.873C72.3576 9.69967 72.102 9.613 71.7726 9.613H69.3806V12.044ZM69.3806 8.209H71.4996C71.8116 8.209 72.0543 8.12667 72.2276 7.962C72.401 7.78867 72.4876 7.55033 72.4876 7.247V6.844C72.4876 6.54067 72.401 6.30667 72.2276 6.142C72.0543 5.96867 71.8116 5.882 71.4996 5.882H69.3806V8.209ZM79.8468 13.656C79.2488 13.656 78.7071 13.5563 78.2218 13.357C77.7364 13.1577 77.3204 12.8587 76.9738 12.46C76.6358 12.0613 76.3714 11.5717 76.1808 10.991C75.9901 10.4103 75.8948 9.73433 75.8948 8.963C75.8948 8.20033 75.9901 7.52867 76.1808 6.948C76.3714 6.35867 76.6358 5.86467 76.9738 5.466C77.3204 5.06733 77.7364 4.76833 78.2218 4.569C78.7071 4.36967 79.2488 4.27 79.8468 4.27C80.4448 4.27 80.9864 4.36967 81.4718 4.569C81.9571 4.76833 82.3731 5.06733 82.7198 5.466C83.0664 5.86467 83.3308 6.35867 83.5128 6.948C83.7034 7.52867 83.7988 8.20033 83.7988 8.963C83.7988 9.73433 83.7034 10.4103 83.5128 10.991C83.3308 11.5717 83.0664 12.0613 82.7198 12.46C82.3731 12.8587 81.9571 13.1577 81.4718 13.357C80.9864 13.5563 80.4448 13.656 79.8468 13.656ZM79.8468 12.135C80.4968 12.135 81.0124 11.9183 81.3938 11.485C81.7838 11.0517 81.9788 10.445 81.9788 9.665V8.261C81.9788 7.481 81.7838 6.87433 81.3938 6.441C81.0124 6.00767 80.4968 5.791 79.8468 5.791C79.1968 5.791 78.6768 6.00767 78.2868 6.441C77.9054 6.87433 77.7148 7.481 77.7148 8.261V9.665C77.7148 10.445 77.9054 11.0517 78.2868 11.485C78.6768 11.9183 79.1968 12.135 79.8468 12.135ZM89.0626 13.656C88.4646 13.656 87.923 13.5607 87.4376 13.37C86.961 13.1707 86.5493 12.876 86.2026 12.486C85.8646 12.096 85.6046 11.615 85.4226 11.043C85.2406 10.4623 85.1496 9.79067 85.1496 9.028C85.1496 8.26533 85.2406 7.58933 85.4226 7C85.6046 6.402 85.8646 5.90367 86.2026 5.505C86.5493 5.09767 86.961 4.79 87.4376 4.582C87.923 4.374 88.4646 4.27 89.0626 4.27C89.8773 4.27 90.5533 4.44333 91.0906 4.79C91.628 5.13667 92.057 5.661 92.3776 6.363L90.9086 7.143C90.7786 6.73567 90.5663 6.41067 90.2716 6.168C89.977 5.91667 89.574 5.791 89.0626 5.791C88.4213 5.791 87.91 6.00767 87.5286 6.441C87.156 6.87433 86.9696 7.481 86.9696 8.261V9.691C86.9696 10.4797 87.156 11.0863 87.5286 11.511C87.91 11.927 88.4213 12.135 89.0626 12.135C89.574 12.135 89.99 11.9963 90.3106 11.719C90.64 11.4417 90.8783 11.0993 91.0256 10.692L92.4166 11.511C92.0873 12.187 91.6496 12.7157 91.1036 13.097C90.5576 13.4697 89.8773 13.656 89.0626 13.656ZM97.4298 5.947V13.5H95.7138V5.947H93.1398V4.426H100.004V5.947H97.4298ZM101.409 4.426H103.073V9.236L102.904 11.121H102.943L103.84 9.418L107.09 4.426H108.624V13.5H106.96V8.69L107.129 6.805H107.09L106.193 8.495L102.943 13.5H101.409V4.426ZM49.066 29.5V20.426H53.148C53.564 20.426 53.9367 20.4953 54.266 20.634C54.604 20.764 54.89 20.9547 55.124 21.206C55.358 21.4487 55.5357 21.7433 55.657 22.09C55.7783 22.4367 55.839 22.818 55.839 23.234C55.839 23.6587 55.7783 24.0443 55.657 24.391C55.5357 24.729 55.358 25.0237 55.124 25.275C54.89 25.5177 54.604 25.7083 54.266 25.847C53.9367 25.977 53.564 26.042 53.148 26.042H50.782V29.5H49.066ZM50.782 24.56H52.992C53.3213 24.56 53.5813 24.4733 53.772 24.3C53.9627 24.118 54.058 23.8623 54.058 23.533V22.935C54.058 22.6057 53.9627 22.3543 53.772 22.181C53.5813 22.0077 53.3213 21.921 52.992 21.921H50.782V24.56ZM57.3941 29.5V20.426H63.3741V21.947H59.1101V24.144H62.8801V25.665H59.1101V27.979H63.3741V29.5H57.3941ZM65.189 20.426H70.402V21.947H66.905V29.5H65.189V20.426ZM71.816 20.426H73.48V25.236L73.311 27.121H73.35L74.247 25.418L77.497 20.426H79.031V29.5H77.367V24.69L77.536 22.805H77.497L76.6 24.495L73.35 29.5H71.816V20.426ZM84.7218 29.656C84.1238 29.656 83.5821 29.5563 83.0968 29.357C82.6114 29.1577 82.1954 28.8587 81.8488 28.46C81.5108 28.0613 81.2464 27.5717 81.0558 26.991C80.8651 26.4103 80.7698 25.7343 80.7698 24.963C80.7698 24.2003 80.8651 23.5287 81.0558 22.948C81.2464 22.3587 81.5108 21.8647 81.8488 21.466C82.1954 21.0673 82.6114 20.7683 83.0968 20.569C83.5821 20.3697 84.1238 20.27 84.7218 20.27C85.3198 20.27 85.8614 20.3697 86.3468 20.569C86.8321 20.7683 87.2481 21.0673 87.5948 21.466C87.9414 21.8647 88.2058 22.3587 88.3878 22.948C88.5784 23.5287 88.6738 24.2003 88.6738 24.963C88.6738 25.7343 88.5784 26.4103 88.3878 26.991C88.2058 27.5717 87.9414 28.0613 87.5948 28.46C87.2481 28.8587 86.8321 29.1577 86.3468 29.357C85.8614 29.5563 85.3198 29.656 84.7218 29.656ZM84.7218 28.135C85.3718 28.135 85.8874 27.9183 86.2688 27.485C86.6588 27.0517 86.8538 26.445 86.8538 25.665V24.261C86.8538 23.481 86.6588 22.8743 86.2688 22.441C85.8874 22.0077 85.3718 21.791 84.7218 21.791C84.0718 21.791 83.5518 22.0077 83.1618 22.441C82.7804 22.8743 82.5898 23.481 82.5898 24.261V25.665C82.5898 26.445 82.7804 27.0517 83.1618 27.485C83.5518 27.9183 84.0718 28.135 84.7218 28.135ZM95.9136 25.665H92.1306V29.5H90.4146V20.426H92.1306V24.144H95.9136V20.426H97.6296V29.5H95.9136V25.665ZM103.32 29.656C102.722 29.656 102.181 29.5563 101.695 29.357C101.21 29.1577 100.794 28.8587 100.447 28.46C100.109 28.0613 99.845 27.5717 99.6544 26.991C99.4637 26.4103 99.3684 25.7343 99.3684 24.963C99.3684 24.2003 99.4637 23.5287 99.6544 22.948C99.845 22.3587 100.109 21.8647 100.447 21.466C100.794 21.0673 101.21 20.7683 101.695 20.569C102.181 20.3697 102.722 20.27 103.32 20.27C103.918 20.27 104.46 20.3697 104.945 20.569C105.431 20.7683 105.847 21.0673 106.193 21.466C106.54 21.8647 106.804 22.3587 106.986 22.948C107.177 23.5287 107.272 24.2003 107.272 24.963C107.272 25.7343 107.177 26.4103 106.986 26.991C106.804 27.5717 106.54 28.0613 106.193 28.46C105.847 28.8587 105.431 29.1577 104.945 29.357C104.46 29.5563 103.918 29.656 103.32 29.656ZM103.32 28.135C103.97 28.135 104.486 27.9183 104.867 27.485C105.257 27.0517 105.452 26.445 105.452 25.665V24.261C105.452 23.481 105.257 22.8743 104.867 22.441C104.486 22.0077 103.97 21.791 103.32 21.791C102.67 21.791 102.15 22.0077 101.76 22.441C101.379 22.8743 101.188 23.481 101.188 24.261V25.665C101.188 26.445 101.379 27.0517 101.76 27.485C102.15 27.9183 102.67 28.135 103.32 28.135ZM109.013 20.426H113.212C113.585 20.426 113.919 20.4823 114.213 20.595C114.517 20.7077 114.772 20.8637 114.98 21.063C115.188 21.2623 115.344 21.5093 115.448 21.804C115.561 22.09 115.617 22.4063 115.617 22.753C115.617 23.0997 115.57 23.3943 115.474 23.637C115.388 23.871 115.266 24.066 115.11 24.222C114.963 24.378 114.79 24.495 114.59 24.573C114.4 24.651 114.2 24.6943 113.992 24.703V24.781C114.192 24.781 114.404 24.82 114.629 24.898C114.863 24.976 115.076 25.1017 115.266 25.275C115.466 25.4397 115.63 25.6563 115.76 25.925C115.89 26.185 115.955 26.51 115.955 26.9C115.955 27.264 115.895 27.6063 115.773 27.927C115.661 28.239 115.5 28.512 115.292 28.746C115.084 28.98 114.837 29.1663 114.551 29.305C114.265 29.435 113.953 29.5 113.615 29.5H109.013V20.426ZM110.729 28.044H113.121C113.451 28.044 113.706 27.9617 113.888 27.797C114.07 27.6237 114.161 27.3767 114.161 27.056V26.614C114.161 26.2933 114.07 26.0463 113.888 25.873C113.706 25.6997 113.451 25.613 113.121 25.613H110.729V28.044ZM110.729 24.209H112.848C113.16 24.209 113.403 24.1267 113.576 23.962C113.75 23.7887 113.836 23.5503 113.836 23.247V22.844C113.836 22.5407 113.75 22.3067 113.576 22.142C113.403 21.9687 113.16 21.882 112.848 21.882H110.729V24.209Z" fill="white"/>
    <path d="M49.116 36.124H55.2V44.5H54.192V37.012H50.124V44.5H49.116V36.124ZM57.3403 38.308H58.3003V39.316H58.3483C58.5083 38.924 58.7403 38.636 59.0443 38.452C59.3563 38.26 59.7283 38.164 60.1603 38.164C60.5443 38.164 60.8923 38.24 61.2043 38.392C61.5163 38.544 61.7803 38.76 61.9963 39.04C62.2203 39.32 62.3883 39.66 62.5003 40.06C62.6203 40.46 62.6803 40.908 62.6803 41.404C62.6803 41.9 62.6203 42.348 62.5003 42.748C62.3883 43.148 62.2203 43.488 61.9963 43.768C61.7803 44.048 61.5163 44.264 61.2043 44.416C60.8923 44.568 60.5443 44.644 60.1603 44.644C59.3203 44.644 58.7163 44.26 58.3483 43.492H58.3003V46.9H57.3403V38.308ZM59.8963 43.78C60.4403 43.78 60.8683 43.612 61.1803 43.276C61.4923 42.932 61.6483 42.484 61.6483 41.932V40.876C61.6483 40.324 61.4923 39.88 61.1803 39.544C60.8683 39.2 60.4403 39.028 59.8963 39.028C59.6803 39.028 59.4723 39.06 59.2723 39.124C59.0803 39.18 58.9123 39.26 58.7683 39.364C58.6243 39.468 58.5083 39.596 58.4203 39.748C58.3403 39.892 58.3003 40.048 58.3003 40.216V42.52C58.3003 42.72 58.3403 42.9 58.4203 43.06C58.5083 43.212 58.6243 43.344 58.7683 43.456C58.9123 43.56 59.0803 43.64 59.2723 43.696C59.4723 43.752 59.6803 43.78 59.8963 43.78ZM64.3013 38.308H65.2373V41.74L65.1413 43.228H65.1893L65.9573 41.908L68.4293 38.308H69.3173V44.5H68.3813V41.068L68.4773 39.58H68.4293L67.6613 40.9L65.1893 44.5H64.3013V38.308ZM74.1919 38.308H79.0279V44.5H78.0679V39.148H75.1519V44.5H74.1919V38.308ZM83.4108 44.644C82.9948 44.644 82.6148 44.568 82.2708 44.416C81.9268 44.264 81.6308 44.048 81.3828 43.768C81.1428 43.48 80.9548 43.14 80.8188 42.748C80.6828 42.348 80.6148 41.9 80.6148 41.404C80.6148 40.916 80.6828 40.472 80.8188 40.072C80.9548 39.672 81.1428 39.332 81.3828 39.052C81.6308 38.764 81.9268 38.544 82.2708 38.392C82.6148 38.24 82.9948 38.164 83.4108 38.164C83.8268 38.164 84.2028 38.24 84.5388 38.392C84.8828 38.544 85.1788 38.764 85.4268 39.052C85.6748 39.332 85.8668 39.672 86.0028 40.072C86.1388 40.472 86.2068 40.916 86.2068 41.404C86.2068 41.9 86.1388 42.348 86.0028 42.748C85.8668 43.14 85.6748 43.48 85.4268 43.768C85.1788 44.048 84.8828 44.264 84.5388 44.416C84.2028 44.568 83.8268 44.644 83.4108 44.644ZM83.4108 43.792C83.9308 43.792 84.3548 43.632 84.6828 43.312C85.0108 42.992 85.1748 42.504 85.1748 41.848V40.96C85.1748 40.304 85.0108 39.816 84.6828 39.496C84.3548 39.176 83.9308 39.016 83.4108 39.016C82.8908 39.016 82.4668 39.176 82.1388 39.496C81.8108 39.816 81.6468 40.304 81.6468 40.96V41.848C81.6468 42.504 81.8108 42.992 82.1388 43.312C82.4668 43.632 82.8908 43.792 83.4108 43.792ZM86.8382 43.66H87.5462C87.7942 43.26 87.9942 42.76 88.1462 42.16C88.2982 41.56 88.3742 40.872 88.3742 40.096V38.308H92.5622V43.66H93.5942V46.18H92.7182V44.5H87.7142V46.18H86.8382V43.66ZM91.6022 43.66V39.148H89.2862V40.144C89.2862 40.968 89.2142 41.672 89.0702 42.256C88.9342 42.832 88.7702 43.3 88.5782 43.66H91.6022ZM94.2327 43.66H94.9407C95.1887 43.26 95.3887 42.76 95.5407 42.16C95.6927 41.56 95.7687 40.872 95.7687 40.096V38.308H99.9567V43.66H100.989V46.18H100.113V44.5H95.1087V46.18H94.2327V43.66ZM98.9967 43.66V39.148H96.6807V40.144C96.6807 40.968 96.6087 41.672 96.4647 42.256C96.3287 42.832 96.1647 43.3 95.9727 43.66H98.9967ZM104.645 44.644C104.221 44.644 103.837 44.568 103.493 44.416C103.157 44.264 102.865 44.048 102.617 43.768C102.377 43.48 102.189 43.14 102.053 42.748C101.925 42.348 101.861 41.9 101.861 41.404C101.861 40.916 101.925 40.472 102.053 40.072C102.189 39.672 102.377 39.332 102.617 39.052C102.865 38.764 103.157 38.544 103.493 38.392C103.837 38.24 104.221 38.164 104.645 38.164C105.061 38.164 105.433 38.24 105.761 38.392C106.089 38.544 106.369 38.756 106.601 39.028C106.833 39.292 107.009 39.608 107.129 39.976C107.257 40.344 107.321 40.748 107.321 41.188V41.644H102.869V41.932C102.869 42.196 102.909 42.444 102.989 42.676C103.077 42.9 103.197 43.096 103.349 43.264C103.509 43.432 103.701 43.564 103.925 43.66C104.157 43.756 104.417 43.804 104.705 43.804C105.097 43.804 105.437 43.712 105.725 43.528C106.021 43.344 106.249 43.08 106.409 42.736L107.093 43.228C106.893 43.652 106.581 43.996 106.157 44.26C105.733 44.516 105.229 44.644 104.645 44.644ZM104.645 38.968C104.381 38.968 104.141 39.016 103.925 39.112C103.709 39.2 103.521 39.328 103.361 39.496C103.209 39.664 103.089 39.864 103.001 40.096C102.913 40.32 102.869 40.568 102.869 40.84V40.924H106.289V40.792C106.289 40.24 106.137 39.8 105.833 39.472C105.537 39.136 105.141 38.968 104.645 38.968ZM108.903 38.308H109.863V39.316H109.911C110.071 38.924 110.303 38.636 110.607 38.452C110.919 38.26 111.291 38.164 111.723 38.164C112.107 38.164 112.455 38.24 112.767 38.392C113.079 38.544 113.343 38.76 113.559 39.04C113.783 39.32 113.951 39.66 114.063 40.06C114.183 40.46 114.243 40.908 114.243 41.404C114.243 41.9 114.183 42.348 114.063 42.748C113.951 43.148 113.783 43.488 113.559 43.768C113.343 44.048 113.079 44.264 112.767 44.416C112.455 44.568 112.107 44.644 111.723 44.644C110.883 44.644 110.279 44.26 109.911 43.492H109.863V46.9H108.903V38.308ZM111.459 43.78C112.003 43.78 112.431 43.612 112.743 43.276C113.055 42.932 113.211 42.484 113.211 41.932V40.876C113.211 40.324 113.055 39.88 112.743 39.544C112.431 39.2 112.003 39.028 111.459 39.028C111.243 39.028 111.035 39.06 110.835 39.124C110.643 39.18 110.475 39.26 110.331 39.364C110.187 39.468 110.071 39.596 109.983 39.748C109.903 39.892 109.863 40.048 109.863 40.216V42.52C109.863 42.72 109.903 42.9 109.983 43.06C110.071 43.212 110.187 43.344 110.331 43.456C110.475 43.56 110.643 43.64 110.835 43.696C111.035 43.752 111.243 43.78 111.459 43.78ZM115.171 43.66H115.891L116.587 41.992C116.675 41.784 116.783 41.628 116.911 41.524C117.039 41.42 117.183 41.356 117.343 41.332V41.284C117.183 41.236 117.043 41.156 116.923 41.044C116.803 40.932 116.699 40.776 116.611 40.576L115.975 39.148H115.255V38.308H115.819C116.059 38.308 116.267 38.368 116.443 38.488C116.627 38.608 116.779 38.8 116.899 39.064L117.727 40.9H118.831V38.308H119.791V40.9H120.895L121.723 39.064C121.843 38.8 121.991 38.608 122.167 38.488C122.351 38.368 122.563 38.308 122.803 38.308H123.367V39.148H122.647L122.011 40.576C121.923 40.776 121.819 40.932 121.699 41.044C121.579 41.156 121.439 41.236 121.279 41.284V41.332C121.439 41.356 121.583 41.42 121.711 41.524C121.839 41.628 121.947 41.784 122.035 41.992L122.731 43.66H123.451V44.5H122.767C122.551 44.5 122.355 44.444 122.179 44.332C122.003 44.212 121.847 43.988 121.711 43.66L120.895 41.716H119.791V44.5H118.831V41.716H117.727L116.911 43.66C116.775 43.988 116.619 44.212 116.443 44.332C116.267 44.444 116.071 44.5 115.855 44.5H115.171V43.66ZM124.946 38.308H125.906V40.9H127.142L128.342 39.004C128.43 38.86 128.514 38.744 128.594 38.656C128.674 38.56 128.754 38.488 128.834 38.44C128.914 38.392 128.998 38.36 129.086 38.344C129.174 38.32 129.274 38.308 129.386 38.308H129.95V39.148H129.206L128.234 40.684C128.17 40.788 128.114 40.872 128.066 40.936C128.018 41 127.97 41.056 127.922 41.104C127.874 41.144 127.822 41.18 127.766 41.212C127.71 41.236 127.642 41.26 127.562 41.284V41.332C127.73 41.356 127.874 41.412 127.994 41.5C128.122 41.58 128.254 41.74 128.39 41.98L129.338 43.66H130.046V44.5H129.35C129.142 44.5 128.95 44.448 128.774 44.344C128.606 44.232 128.442 44.032 128.282 43.744L127.142 41.716H125.906V44.5H124.946V38.308ZM133.684 44.644C133.26 44.644 132.876 44.568 132.532 44.416C132.196 44.264 131.904 44.048 131.656 43.768C131.416 43.48 131.228 43.14 131.092 42.748C130.964 42.348 130.9 41.9 130.9 41.404C130.9 40.916 130.964 40.472 131.092 40.072C131.228 39.672 131.416 39.332 131.656 39.052C131.904 38.764 132.196 38.544 132.532 38.392C132.876 38.24 133.26 38.164 133.684 38.164C134.1 38.164 134.472 38.24 134.8 38.392C135.128 38.544 135.408 38.756 135.64 39.028C135.872 39.292 136.048 39.608 136.168 39.976C136.296 40.344 136.36 40.748 136.36 41.188V41.644H131.908V41.932C131.908 42.196 131.948 42.444 132.028 42.676C132.116 42.9 132.236 43.096 132.388 43.264C132.548 43.432 132.74 43.564 132.964 43.66C133.196 43.756 133.456 43.804 133.744 43.804C134.136 43.804 134.476 43.712 134.764 43.528C135.06 43.344 135.288 43.08 135.448 42.736L136.132 43.228C135.932 43.652 135.62 43.996 135.196 44.26C134.772 44.516 134.268 44.644 133.684 44.644ZM133.684 38.968C133.42 38.968 133.18 39.016 132.964 39.112C132.748 39.2 132.56 39.328 132.4 39.496C132.248 39.664 132.128 39.864 132.04 40.096C131.952 40.32 131.908 40.568 131.908 40.84V40.924H135.328V40.792C135.328 40.24 135.176 39.8 134.872 39.472C134.576 39.136 134.18 38.968 133.684 38.968ZM143.826 44.644C142.762 44.644 141.934 44.284 141.342 43.564C140.75 42.836 140.454 41.768 140.454 40.36C140.454 38.952 140.75 37.872 141.342 37.12C141.934 36.36 142.762 35.98 143.826 35.98C144.53 35.98 145.118 36.14 145.59 36.46C146.07 36.78 146.442 37.232 146.706 37.816L145.89 38.308C145.722 37.876 145.466 37.532 145.122 37.276C144.778 37.012 144.346 36.88 143.826 36.88C143.466 36.88 143.142 36.948 142.854 37.084C142.574 37.22 142.334 37.416 142.134 37.672C141.942 37.92 141.794 38.22 141.69 38.572C141.586 38.916 141.534 39.304 141.534 39.736V40.984C141.534 41.848 141.734 42.524 142.134 43.012C142.534 43.5 143.098 43.744 143.826 43.744C144.362 43.744 144.81 43.608 145.17 43.336C145.53 43.056 145.794 42.688 145.962 42.232L146.766 42.736C146.502 43.328 146.122 43.796 145.626 44.14C145.13 44.476 144.53 44.644 143.826 44.644ZM154.855 37.444H154.795L154.087 38.848L152.083 42.496L150.079 38.848L149.371 37.444H149.311V44.5H148.327V36.124H149.671L152.071 40.636H152.131L154.543 36.124H155.839V44.5H154.855V37.444ZM158.065 36.124H159.049V41.38L158.953 43.096H158.989L159.829 41.584L163.405 36.124H164.317V44.5H163.333V39.244L163.429 37.528H163.393L162.553 39.04L158.977 44.5H158.065V36.124ZM171.83 44.5H166.334V43.468L169.07 40.948C169.462 40.588 169.79 40.208 170.054 39.808C170.318 39.4 170.45 38.992 170.45 38.584V38.44C170.45 37.976 170.322 37.6 170.066 37.312C169.81 37.024 169.422 36.88 168.902 36.88C168.646 36.88 168.422 36.916 168.23 36.988C168.038 37.06 167.87 37.16 167.726 37.288C167.59 37.416 167.474 37.568 167.378 37.744C167.29 37.912 167.218 38.096 167.162 38.296L166.262 37.948C166.342 37.7 166.45 37.46 166.586 37.228C166.73 36.988 166.906 36.776 167.114 36.592C167.33 36.408 167.586 36.26 167.882 36.148C168.186 36.036 168.542 35.98 168.95 35.98C169.358 35.98 169.722 36.04 170.042 36.16C170.362 36.28 170.63 36.448 170.846 36.664C171.062 36.88 171.226 37.136 171.338 37.432C171.458 37.728 171.518 38.056 171.518 38.416C171.518 38.744 171.47 39.048 171.374 39.328C171.286 39.608 171.162 39.876 171.002 40.132C170.842 40.38 170.646 40.624 170.414 40.864C170.19 41.104 169.946 41.344 169.682 41.584L167.426 43.612H171.83V44.5Z" fill="white"/>
    <defs>
        <clipPath id="clip0_1110_470">
            <rect width="40" height="40" fill="white" transform="translate(0 3.5)"/>
        </clipPath>
    </defs>
</svg>
