<svg width="252" height="45" viewBox="0 0 252 45" fill="none" xmlns="http://www.w3.org/2000/svg">
<g clip-path="url(#clip0_1110_15113)">
<path fill-rule="evenodd" clip-rule="evenodd" d="M22.5514 42.3C33.2771 42.3 41.9721 33.4352 41.9721 22.5C41.9721 11.5648 33.2771 2.7 22.5514 2.7C11.8257 2.7 3.1307 11.5648 3.1307 22.5C3.1307 33.4352 11.8257 42.3 22.5514 42.3ZM22.5514 45C34.7397 45 44.6204 34.9264 44.6204 22.5C44.6204 10.0736 34.7397 0 22.5514 0C10.363 0 0.482422 10.0736 0.482422 22.5C0.482422 34.9264 10.363 45 22.5514 45Z" fill="#0047FF"/>
<path fill-rule="evenodd" clip-rule="evenodd" d="M22.5515 34.8C29.2145 34.8 34.6158 29.2932 34.6158 22.5C34.6158 15.7069 29.2145 10.2 22.5515 10.2C15.8886 10.2 10.4871 15.7069 10.4871 22.5C10.4871 29.2932 15.8886 34.8 22.5515 34.8ZM22.5515 37.5C30.6771 37.5 37.2641 30.7842 37.2641 22.5C37.2641 14.2157 30.6771 7.5 22.5515 7.5C14.4259 7.5 7.83887 14.2157 7.83887 22.5C7.83887 30.7842 14.4259 37.5 22.5515 37.5Z" fill="#0047FF"/>
<path fill-rule="evenodd" clip-rule="evenodd" d="M22.5517 27.3C25.1518 27.3 27.2598 25.151 27.2598 22.5C27.2598 19.849 25.1518 17.7 22.5517 17.7C19.9515 17.7 17.8436 19.849 17.8436 22.5C17.8436 25.151 19.9515 27.3 22.5517 27.3ZM22.5517 30C26.6145 30 29.908 26.6422 29.908 22.5C29.908 18.3579 26.6145 15 22.5517 15C18.4889 15 15.1953 18.3579 15.1953 22.5C15.1953 26.6422 18.4889 30 22.5517 30Z" fill="#0047FF"/>
</g>
<path d="M66.595 13.895H61.066V19.5H58.558V6.238H61.066V11.672H66.595V6.238H69.103V19.5H66.595V13.895ZM77.4203 19.728C76.5463 19.728 75.7546 19.5823 75.0453 19.291C74.3359 18.9997 73.7279 18.5627 73.2213 17.98C72.7273 17.3973 72.3409 16.6817 72.0623 15.833C71.7836 14.9843 71.6443 13.9963 71.6443 12.869C71.6443 11.7543 71.7836 10.7727 72.0623 9.924C72.3409 9.06267 72.7273 8.34067 73.2213 7.758C73.7279 7.17533 74.3359 6.73833 75.0453 6.447C75.7546 6.15567 76.5463 6.01 77.4203 6.01C78.2943 6.01 79.0859 6.15567 79.7953 6.447C80.5046 6.73833 81.1126 7.17533 81.6193 7.758C82.1259 8.34067 82.5123 9.06267 82.7783 9.924C83.0569 10.7727 83.1963 11.7543 83.1963 12.869C83.1963 13.9963 83.0569 14.9843 82.7783 15.833C82.5123 16.6817 82.1259 17.3973 81.6193 17.98C81.1126 18.5627 80.5046 18.9997 79.7953 19.291C79.0859 19.5823 78.2943 19.728 77.4203 19.728ZM77.4203 17.505C78.3703 17.505 79.1239 17.1883 79.6813 16.555C80.2513 15.9217 80.5363 15.035 80.5363 13.895V11.843C80.5363 10.703 80.2513 9.81633 79.6813 9.183C79.1239 8.54967 78.3703 8.233 77.4203 8.233C76.4703 8.233 75.7103 8.54967 75.1403 9.183C74.5829 9.81633 74.3043 10.703 74.3043 11.843V13.895C74.3043 15.035 74.5829 15.9217 75.1403 16.555C75.7103 17.1883 76.4703 17.505 77.4203 17.505ZM85.7406 6.238H91.8776C92.4223 6.238 92.91 6.32033 93.3406 6.485C93.784 6.64967 94.1576 6.87767 94.4616 7.169C94.7656 7.46033 94.9936 7.82133 95.1456 8.252C95.3103 8.67 95.3926 9.13233 95.3926 9.639C95.3926 10.1457 95.323 10.5763 95.1836 10.931C95.057 11.273 94.8796 11.558 94.6516 11.786C94.4363 12.014 94.183 12.185 93.8916 12.299C93.613 12.413 93.3216 12.4763 93.0176 12.489V12.603C93.309 12.603 93.6193 12.66 93.9486 12.774C94.2906 12.888 94.601 13.0717 94.8796 13.325C95.171 13.5657 95.4116 13.8823 95.6016 14.275C95.7916 14.655 95.8866 15.13 95.8866 15.7C95.8866 16.232 95.798 16.7323 95.6206 17.201C95.456 17.657 95.2216 18.056 94.9176 18.398C94.6136 18.74 94.2526 19.0123 93.8346 19.215C93.4166 19.405 92.9606 19.5 92.4666 19.5H85.7406V6.238ZM88.2486 17.372H91.7446C92.226 17.372 92.5996 17.2517 92.8656 17.011C93.1316 16.7577 93.2646 16.3967 93.2646 15.928V15.282C93.2646 14.8133 93.1316 14.4523 92.8656 14.199C92.5996 13.9457 92.226 13.819 91.7446 13.819H88.2486V17.372ZM88.2486 11.767H91.3456C91.8016 11.767 92.1563 11.6467 92.4096 11.406C92.663 11.1527 92.7896 10.8043 92.7896 10.361V9.772C92.7896 9.32867 92.663 8.98667 92.4096 8.746C92.1563 8.49267 91.8016 8.366 91.3456 8.366H88.2486V11.767ZM103.545 19.728C102.671 19.728 101.88 19.5823 101.17 19.291C100.461 18.9997 99.8529 18.5627 99.3463 17.98C98.8523 17.3973 98.4659 16.6817 98.1873 15.833C97.9086 14.9843 97.7693 13.9963 97.7693 12.869C97.7693 11.7543 97.9086 10.7727 98.1873 9.924C98.4659 9.06267 98.8523 8.34067 99.3463 7.758C99.8529 7.17533 100.461 6.73833 101.17 6.447C101.88 6.15567 102.671 6.01 103.545 6.01C104.419 6.01 105.211 6.15567 105.92 6.447C106.63 6.73833 107.238 7.17533 107.744 7.758C108.251 8.34067 108.637 9.06267 108.903 9.924C109.182 10.7727 109.321 11.7543 109.321 12.869C109.321 13.9963 109.182 14.9843 108.903 15.833C108.637 16.6817 108.251 17.3973 107.744 17.98C107.238 18.5627 106.63 18.9997 105.92 19.291C105.211 19.5823 104.419 19.728 103.545 19.728ZM103.545 17.505C104.495 17.505 105.249 17.1883 105.806 16.555C106.376 15.9217 106.661 15.035 106.661 13.895V11.843C106.661 10.703 106.376 9.81633 105.806 9.183C105.249 8.54967 104.495 8.233 103.545 8.233C102.595 8.233 101.835 8.54967 101.265 9.183C100.708 9.81633 100.429 10.703 100.429 11.843V13.895C100.429 15.035 100.708 15.9217 101.265 16.555C101.835 17.1883 102.595 17.505 103.545 17.505ZM117.015 19.728C116.141 19.728 115.349 19.5887 114.64 19.31C113.943 19.0187 113.341 18.588 112.835 18.018C112.341 17.448 111.961 16.745 111.695 15.909C111.429 15.0603 111.296 14.0787 111.296 12.964C111.296 11.8493 111.429 10.8613 111.695 10C111.961 9.126 112.341 8.39767 112.835 7.815C113.341 7.21967 113.943 6.77 114.64 6.466C115.349 6.162 116.141 6.01 117.015 6.01C118.205 6.01 119.193 6.26333 119.979 6.77C120.764 7.27667 121.391 8.043 121.86 9.069L119.713 10.209C119.523 9.61367 119.212 9.13867 118.782 8.784C118.351 8.41667 117.762 8.233 117.015 8.233C116.077 8.233 115.33 8.54967 114.773 9.183C114.228 9.81633 113.956 10.703 113.956 11.843V13.933C113.956 15.0857 114.228 15.9723 114.773 16.593C115.33 17.201 116.077 17.505 117.015 17.505C117.762 17.505 118.37 17.3023 118.839 16.897C119.32 16.4917 119.668 15.9913 119.884 15.396L121.917 16.593C121.435 17.581 120.796 18.3537 119.998 18.911C119.2 19.4557 118.205 19.728 117.015 19.728ZM129.243 8.461V19.5H126.735V8.461H122.973V6.238H133.005V8.461H129.243ZM135.059 6.238H137.491V13.268L137.244 16.023H137.301L138.612 13.534L143.362 6.238H145.604V19.5H143.172V12.47L143.419 9.715H143.362L142.051 12.185L137.301 19.5H135.059V6.238ZM153.205 19.5V6.238H159.171C159.779 6.238 160.324 6.33933 160.805 6.542C161.299 6.732 161.717 7.01067 162.059 7.378C162.401 7.73267 162.661 8.16333 162.838 8.67C163.016 9.17667 163.104 9.734 163.104 10.342C163.104 10.9627 163.016 11.5263 162.838 12.033C162.661 12.527 162.401 12.9577 162.059 13.325C161.717 13.6797 161.299 13.9583 160.805 14.161C160.324 14.351 159.779 14.446 159.171 14.446H155.713V19.5H153.205ZM155.713 12.28H158.943C159.425 12.28 159.805 12.1533 160.083 11.9C160.362 11.634 160.501 11.2603 160.501 10.779V9.905C160.501 9.42367 160.362 9.05633 160.083 8.803C159.805 8.54967 159.425 8.423 158.943 8.423H155.713V12.28ZM165.377 19.5V6.238H174.117V8.461H167.885V11.672H173.395V13.895H167.885V17.277H174.117V19.5H165.377ZM176.77 6.238H184.389V8.461H179.278V19.5H176.77V6.238ZM186.455 6.238H188.887V13.268L188.64 16.023H188.697L190.008 13.534L194.758 6.238H197V19.5H194.568V12.47L194.815 9.715H194.758L193.447 12.185L188.697 19.5H186.455V6.238ZM205.318 19.728C204.444 19.728 203.652 19.5823 202.943 19.291C202.233 18.9997 201.625 18.5627 201.119 17.98C200.625 17.3973 200.238 16.6817 199.96 15.833C199.681 14.9843 199.542 13.9963 199.542 12.869C199.542 11.7543 199.681 10.7727 199.96 9.924C200.238 9.06267 200.625 8.34067 201.119 7.758C201.625 7.17533 202.233 6.73833 202.943 6.447C203.652 6.15567 204.444 6.01 205.318 6.01C206.192 6.01 206.983 6.15567 207.693 6.447C208.402 6.73833 209.01 7.17533 209.517 7.758C210.023 8.34067 210.41 9.06267 210.676 9.924C210.954 10.7727 211.094 11.7543 211.094 12.869C211.094 13.9963 210.954 14.9843 210.676 15.833C210.41 16.6817 210.023 17.3973 209.517 17.98C209.01 18.5627 208.402 18.9997 207.693 19.291C206.983 19.5823 206.192 19.728 205.318 19.728ZM205.318 17.505C206.268 17.505 207.021 17.1883 207.579 16.555C208.149 15.9217 208.434 15.035 208.434 13.895V11.843C208.434 10.703 208.149 9.81633 207.579 9.183C207.021 8.54967 206.268 8.233 205.318 8.233C204.368 8.233 203.608 8.54967 203.038 9.183C202.48 9.81633 202.202 10.703 202.202 11.843V13.895C202.202 15.035 202.48 15.9217 203.038 16.555C203.608 17.1883 204.368 17.505 205.318 17.505ZM221.675 13.895H216.146V19.5H213.638V6.238H216.146V11.672H221.675V6.238H224.183V19.5H221.675V13.895ZM232.5 19.728C231.626 19.728 230.835 19.5823 230.125 19.291C229.416 18.9997 228.808 18.5627 228.301 17.98C227.807 17.3973 227.421 16.6817 227.142 15.833C226.864 14.9843 226.724 13.9963 226.724 12.869C226.724 11.7543 226.864 10.7727 227.142 9.924C227.421 9.06267 227.807 8.34067 228.301 7.758C228.808 7.17533 229.416 6.73833 230.125 6.447C230.835 6.15567 231.626 6.01 232.5 6.01C233.374 6.01 234.166 6.15567 234.875 6.447C235.585 6.73833 236.193 7.17533 236.699 7.758C237.206 8.34067 237.592 9.06267 237.858 9.924C238.137 10.7727 238.276 11.7543 238.276 12.869C238.276 13.9963 238.137 14.9843 237.858 15.833C237.592 16.6817 237.206 17.3973 236.699 17.98C236.193 18.5627 235.585 18.9997 234.875 19.291C234.166 19.5823 233.374 19.728 232.5 19.728ZM232.5 17.505C233.45 17.505 234.204 17.1883 234.761 16.555C235.331 15.9217 235.616 15.035 235.616 13.895V11.843C235.616 10.703 235.331 9.81633 234.761 9.183C234.204 8.54967 233.45 8.233 232.5 8.233C231.55 8.233 230.79 8.54967 230.22 9.183C229.663 9.81633 229.384 10.703 229.384 11.843V13.895C229.384 15.035 229.663 15.9217 230.22 16.555C230.79 17.1883 231.55 17.505 232.5 17.505ZM240.821 6.238H246.958C247.502 6.238 247.99 6.32033 248.421 6.485C248.864 6.64967 249.238 6.87767 249.542 7.169C249.846 7.46033 250.074 7.82133 250.226 8.252C250.39 8.67 250.473 9.13233 250.473 9.639C250.473 10.1457 250.403 10.5763 250.264 10.931C250.137 11.273 249.96 11.558 249.732 11.786C249.516 12.014 249.263 12.185 248.972 12.299C248.693 12.413 248.402 12.4763 248.098 12.489V12.603C248.389 12.603 248.699 12.66 249.029 12.774C249.371 12.888 249.681 13.0717 249.96 13.325C250.251 13.5657 250.492 13.8823 250.682 14.275C250.872 14.655 250.967 15.13 250.967 15.7C250.967 16.232 250.878 16.7323 250.701 17.201C250.536 17.657 250.302 18.056 249.998 18.398C249.694 18.74 249.333 19.0123 248.915 19.215C248.497 19.405 248.041 19.5 247.547 19.5H240.821V6.238ZM243.329 17.372H246.825C247.306 17.372 247.68 17.2517 247.946 17.011C248.212 16.7577 248.345 16.3967 248.345 15.928V15.282C248.345 14.8133 248.212 14.4523 247.946 14.199C247.68 13.9457 247.306 13.819 246.825 13.819H243.329V17.372ZM243.329 11.767H246.426C246.882 11.767 247.236 11.6467 247.49 11.406C247.743 11.1527 247.87 10.8043 247.87 10.361V9.772C247.87 9.32867 247.743 8.98667 247.49 8.746C247.236 8.49267 246.882 8.366 246.426 8.366H243.329V11.767Z" fill="#0047FF"/>
<path d="M58.302 31.728H65.4V41.5H64.224V32.764H59.478V41.5H58.302V31.728ZM67.897 34.276H69.017V35.452H69.073C69.2597 34.9947 69.5304 34.6587 69.885 34.444C70.249 34.22 70.683 34.108 71.187 34.108C71.635 34.108 72.041 34.1967 72.405 34.374C72.769 34.5513 73.077 34.8033 73.329 35.13C73.5904 35.4567 73.7864 35.8533 73.917 36.32C74.057 36.7867 74.127 37.3093 74.127 37.888C74.127 38.4667 74.057 38.9893 73.917 39.456C73.7864 39.9227 73.5904 40.3193 73.329 40.646C73.077 40.9727 72.769 41.2247 72.405 41.402C72.041 41.5793 71.635 41.668 71.187 41.668C70.207 41.668 69.5024 41.22 69.073 40.324H69.017V44.3H67.897V34.276ZM70.879 40.66C71.5137 40.66 72.013 40.464 72.377 40.072C72.741 39.6707 72.923 39.148 72.923 38.504V37.272C72.923 36.628 72.741 36.11 72.377 35.718C72.013 35.3167 71.5137 35.116 70.879 35.116C70.627 35.116 70.3844 35.1533 70.151 35.228C69.927 35.2933 69.731 35.3867 69.563 35.508C69.395 35.6293 69.2597 35.7787 69.157 35.956C69.0637 36.124 69.017 36.306 69.017 36.502V39.19C69.017 39.4233 69.0637 39.6333 69.157 39.82C69.2597 39.9973 69.395 40.1513 69.563 40.282C69.731 40.4033 69.927 40.4967 70.151 40.562C70.3844 40.6273 70.627 40.66 70.879 40.66ZM76.0181 34.276H77.1101V38.28L76.9981 40.016H77.0541L77.9501 38.476L80.8341 34.276H81.8701V41.5H80.7781V37.496L80.8901 35.76H80.8341L79.9381 37.3L77.0541 41.5H76.0181V34.276ZM87.5572 34.276H93.1992V41.5H92.0792V35.256H88.6772V41.5H87.5572V34.276ZM98.3126 41.668C97.8272 41.668 97.3839 41.5793 96.9826 41.402C96.5812 41.2247 96.2359 40.9727 95.9466 40.646C95.6666 40.31 95.4472 39.9133 95.2886 39.456C95.1299 38.9893 95.0506 38.4667 95.0506 37.888C95.0506 37.3187 95.1299 36.8007 95.2886 36.334C95.4472 35.8673 95.6666 35.4707 95.9466 35.144C96.2359 34.808 96.5812 34.5513 96.9826 34.374C97.3839 34.1967 97.8272 34.108 98.3126 34.108C98.7979 34.108 99.2366 34.1967 99.6286 34.374C100.03 34.5513 100.375 34.808 100.665 35.144C100.954 35.4707 101.178 35.8673 101.337 36.334C101.495 36.8007 101.575 37.3187 101.575 37.888C101.575 38.4667 101.495 38.9893 101.337 39.456C101.178 39.9133 100.954 40.31 100.665 40.646C100.375 40.9727 100.03 41.2247 99.6286 41.402C99.2366 41.5793 98.7979 41.668 98.3126 41.668ZM98.3126 40.674C98.9192 40.674 99.4139 40.4873 99.7966 40.114C100.179 39.7407 100.371 39.1713 100.371 38.406V37.37C100.371 36.6047 100.179 36.0353 99.7966 35.662C99.4139 35.2887 98.9192 35.102 98.3126 35.102C97.7059 35.102 97.2112 35.2887 96.8286 35.662C96.4459 36.0353 96.2546 36.6047 96.2546 37.37V38.406C96.2546 39.1713 96.4459 39.7407 96.8286 40.114C97.2112 40.4873 97.7059 40.674 98.3126 40.674ZM102.311 40.52H103.137C103.427 40.0533 103.66 39.47 103.837 38.77C104.015 38.07 104.103 37.2673 104.103 36.362V34.276H108.989V40.52H110.193V43.46H109.171V41.5H103.333V43.46H102.311V40.52ZM107.869 40.52V35.256H105.167V36.418C105.167 37.3793 105.083 38.2007 104.915 38.882C104.757 39.554 104.565 40.1 104.341 40.52H107.869ZM110.938 40.52H111.764C112.054 40.0533 112.287 39.47 112.464 38.77C112.642 38.07 112.73 37.2673 112.73 36.362V34.276H117.616V40.52H118.82V43.46H117.798V41.5H111.96V43.46H110.938V40.52ZM116.496 40.52V35.256H113.794V36.418C113.794 37.3793 113.71 38.2007 113.542 38.882C113.384 39.554 113.192 40.1 112.968 40.52H116.496ZM123.086 41.668C122.591 41.668 122.143 41.5793 121.742 41.402C121.35 41.2247 121.009 40.9727 120.72 40.646C120.44 40.31 120.22 39.9133 120.062 39.456C119.912 38.9893 119.838 38.4667 119.838 37.888C119.838 37.3187 119.912 36.8007 120.062 36.334C120.22 35.8673 120.44 35.4707 120.72 35.144C121.009 34.808 121.35 34.5513 121.742 34.374C122.143 34.1967 122.591 34.108 123.086 34.108C123.571 34.108 124.005 34.1967 124.388 34.374C124.77 34.5513 125.097 34.7987 125.368 35.116C125.638 35.424 125.844 35.7927 125.984 36.222C126.133 36.6513 126.208 37.1227 126.208 37.636V38.168H121.014V38.504C121.014 38.812 121.06 39.1013 121.154 39.372C121.256 39.6333 121.396 39.862 121.574 40.058C121.76 40.254 121.984 40.408 122.246 40.52C122.516 40.632 122.82 40.688 123.156 40.688C123.613 40.688 124.01 40.5807 124.346 40.366C124.691 40.1513 124.957 39.8433 125.144 39.442L125.942 40.016C125.708 40.5107 125.344 40.912 124.85 41.22C124.355 41.5187 123.767 41.668 123.086 41.668ZM123.086 35.046C122.778 35.046 122.498 35.102 122.246 35.214C121.994 35.3167 121.774 35.466 121.588 35.662C121.41 35.858 121.27 36.0913 121.168 36.362C121.065 36.6233 121.014 36.9127 121.014 37.23V37.328H125.004V37.174C125.004 36.53 124.826 36.0167 124.472 35.634C124.126 35.242 123.664 35.046 123.086 35.046ZM128.053 34.276H129.173V35.452H129.229C129.416 34.9947 129.687 34.6587 130.041 34.444C130.405 34.22 130.839 34.108 131.343 34.108C131.791 34.108 132.197 34.1967 132.561 34.374C132.925 34.5513 133.233 34.8033 133.485 35.13C133.747 35.4567 133.943 35.8533 134.073 36.32C134.213 36.7867 134.283 37.3093 134.283 37.888C134.283 38.4667 134.213 38.9893 134.073 39.456C133.943 39.9227 133.747 40.3193 133.485 40.646C133.233 40.9727 132.925 41.2247 132.561 41.402C132.197 41.5793 131.791 41.668 131.343 41.668C130.363 41.668 129.659 41.22 129.229 40.324H129.173V44.3H128.053V34.276ZM131.035 40.66C131.67 40.66 132.169 40.464 132.533 40.072C132.897 39.6707 133.079 39.148 133.079 38.504V37.272C133.079 36.628 132.897 36.11 132.533 35.718C132.169 35.3167 131.67 35.116 131.035 35.116C130.783 35.116 130.541 35.1533 130.307 35.228C130.083 35.2933 129.887 35.3867 129.719 35.508C129.551 35.6293 129.416 35.7787 129.313 35.956C129.22 36.124 129.173 36.306 129.173 36.502V39.19C129.173 39.4233 129.22 39.6333 129.313 39.82C129.416 39.9973 129.551 40.1513 129.719 40.282C129.887 40.4033 130.083 40.4967 130.307 40.562C130.541 40.6273 130.783 40.66 131.035 40.66ZM135.367 40.52H136.207L137.019 38.574C137.121 38.3313 137.247 38.1493 137.397 38.028C137.546 37.9067 137.714 37.832 137.901 37.804V37.748C137.714 37.692 137.551 37.5987 137.411 37.468C137.271 37.3373 137.149 37.1553 137.047 36.922L136.305 35.256H135.465V34.276H136.123C136.403 34.276 136.645 34.346 136.851 34.486C137.065 34.626 137.243 34.85 137.383 35.158L138.349 37.3H139.637V34.276H140.757V37.3H142.045L143.011 35.158C143.151 34.85 143.323 34.626 143.529 34.486C143.743 34.346 143.991 34.276 144.271 34.276H144.929V35.256H144.089L143.347 36.922C143.244 37.1553 143.123 37.3373 142.983 37.468C142.843 37.5987 142.679 37.692 142.493 37.748V37.804C142.679 37.832 142.847 37.9067 142.997 38.028C143.146 38.1493 143.272 38.3313 143.375 38.574L144.187 40.52H145.027V41.5H144.229C143.977 41.5 143.748 41.4347 143.543 41.304C143.337 41.164 143.155 40.9027 142.997 40.52L142.045 38.252H140.757V41.5H139.637V38.252H138.349L137.397 40.52C137.238 40.9027 137.056 41.164 136.851 41.304C136.645 41.4347 136.417 41.5 136.165 41.5H135.367V40.52ZM146.77 34.276H147.89V37.3H149.332L150.732 35.088C150.835 34.92 150.933 34.7847 151.026 34.682C151.119 34.57 151.213 34.486 151.306 34.43C151.399 34.374 151.497 34.3367 151.6 34.318C151.703 34.29 151.819 34.276 151.95 34.276H152.608V35.256H151.74L150.606 37.048C150.531 37.1693 150.466 37.2673 150.41 37.342C150.354 37.4167 150.298 37.482 150.242 37.538C150.186 37.5847 150.125 37.6267 150.06 37.664C149.995 37.692 149.915 37.72 149.822 37.748V37.804C150.018 37.832 150.186 37.8973 150.326 38C150.475 38.0933 150.629 38.28 150.788 38.56L151.894 40.52H152.72V41.5H151.908C151.665 41.5 151.441 41.4393 151.236 41.318C151.04 41.1873 150.849 40.954 150.662 40.618L149.332 38.252H147.89V41.5H146.77V34.276ZM156.965 41.668C156.47 41.668 156.022 41.5793 155.621 41.402C155.229 41.2247 154.888 40.9727 154.599 40.646C154.319 40.31 154.099 39.9133 153.941 39.456C153.791 38.9893 153.717 38.4667 153.717 37.888C153.717 37.3187 153.791 36.8007 153.941 36.334C154.099 35.8673 154.319 35.4707 154.599 35.144C154.888 34.808 155.229 34.5513 155.621 34.374C156.022 34.1967 156.47 34.108 156.965 34.108C157.45 34.108 157.884 34.1967 158.267 34.374C158.649 34.5513 158.976 34.7987 159.247 35.116C159.517 35.424 159.723 35.7927 159.863 36.222C160.012 36.6513 160.087 37.1227 160.087 37.636V38.168H154.893V38.504C154.893 38.812 154.939 39.1013 155.033 39.372C155.135 39.6333 155.275 39.862 155.453 40.058C155.639 40.254 155.863 40.408 156.125 40.52C156.395 40.632 156.699 40.688 157.035 40.688C157.492 40.688 157.889 40.5807 158.225 40.366C158.57 40.1513 158.836 39.8433 159.023 39.442L159.821 40.016C159.587 40.5107 159.223 40.912 158.729 41.22C158.234 41.5187 157.646 41.668 156.965 41.668ZM156.965 35.046C156.657 35.046 156.377 35.102 156.125 35.214C155.873 35.3167 155.653 35.466 155.467 35.662C155.289 35.858 155.149 36.0913 155.047 36.362C154.944 36.6233 154.893 36.9127 154.893 37.23V37.328H158.883V37.174C158.883 36.53 158.705 36.0167 158.351 35.634C158.005 35.242 157.543 35.046 156.965 35.046ZM168.797 41.668C167.555 41.668 166.589 41.248 165.899 40.408C165.208 39.5587 164.863 38.3127 164.863 36.67C164.863 35.0273 165.208 33.7673 165.899 32.89C166.589 32.0033 167.555 31.56 168.797 31.56C169.618 31.56 170.304 31.7467 170.855 32.12C171.415 32.4933 171.849 33.0207 172.157 33.702L171.205 34.276C171.009 33.772 170.71 33.3707 170.309 33.072C169.907 32.764 169.403 32.61 168.797 32.61C168.377 32.61 167.999 32.6893 167.663 32.848C167.336 33.0067 167.056 33.2353 166.823 33.534C166.599 33.8233 166.426 34.1733 166.305 34.584C166.183 34.9853 166.123 35.438 166.123 35.942V37.398C166.123 38.406 166.356 39.1947 166.823 39.764C167.289 40.3333 167.947 40.618 168.797 40.618C169.422 40.618 169.945 40.4593 170.365 40.142C170.785 39.8153 171.093 39.386 171.289 38.854L172.227 39.442C171.919 40.1327 171.475 40.6787 170.897 41.08C170.318 41.472 169.618 41.668 168.797 41.668ZM181.664 33.268H181.594L180.768 34.906L178.43 39.162L176.092 34.906L175.266 33.268H175.196V41.5H174.048V31.728H175.616L178.416 36.992H178.486L181.3 31.728H182.812V41.5H181.664V33.268ZM185.409 31.728H186.557V37.86L186.445 39.862H186.487L187.467 38.098L191.639 31.728H192.703V41.5H191.555V35.368L191.667 33.366H191.625L190.645 35.13L186.473 41.5H185.409V31.728ZM201.468 41.5H195.056V40.296L198.248 37.356C198.705 36.936 199.088 36.4927 199.396 36.026C199.704 35.55 199.858 35.074 199.858 34.598V34.43C199.858 33.8887 199.709 33.45 199.41 33.114C199.111 32.778 198.659 32.61 198.052 32.61C197.753 32.61 197.492 32.652 197.268 32.736C197.044 32.82 196.848 32.9367 196.68 33.086C196.521 33.2353 196.386 33.4127 196.274 33.618C196.171 33.814 196.087 34.0287 196.022 34.262L194.972 33.856C195.065 33.5667 195.191 33.2867 195.35 33.016C195.518 32.736 195.723 32.4887 195.966 32.274C196.218 32.0593 196.517 31.8867 196.862 31.756C197.217 31.6253 197.632 31.56 198.108 31.56C198.584 31.56 199.009 31.63 199.382 31.77C199.755 31.91 200.068 32.106 200.32 32.358C200.572 32.61 200.763 32.9087 200.894 33.254C201.034 33.5993 201.104 33.982 201.104 34.402C201.104 34.7847 201.048 35.1393 200.936 35.466C200.833 35.7927 200.689 36.1053 200.502 36.404C200.315 36.6933 200.087 36.978 199.816 37.258C199.555 37.538 199.27 37.818 198.962 38.098L196.33 40.464H201.468V41.5Z" fill="#0047FF"/>
<defs>
<clipPath id="clip0_1110_15113">
<rect width="45" height="45" fill="white"/>
</clipPath>
</defs>
</svg>
