<svg width="24" height="24" viewBox="0 0 24 24" fill="none" xmlns="http://www.w3.org/2000/svg">
    <path fill-rule="evenodd" clip-rule="evenodd" d="M15.5298 10.4624C14.6305 11.3617 13.3815 11.9279 11.9993 11.9279C10.6338 11.9279 9.36816 11.3617 8.4689 10.4624C7.56964 9.56318 7.00344 8.31421 7.00344 6.93202C7.00344 5.54983 7.56964 4.30087 8.4689 3.40161C9.36816 2.50236 10.6171 1.93616 11.9993 1.93616C13.3815 1.93616 14.6305 2.50236 15.5298 3.40161C16.429 4.30087 16.9952 5.54983 16.9952 6.93202C16.9952 8.31421 16.429 9.56318 15.5298 10.4624ZM11.9993 4.65058C11.3832 4.65058 10.817 4.90037 10.4006 5.31669C10.001 5.73302 9.73451 6.29921 9.73451 6.91537C9.73451 7.53153 9.9843 8.09773 10.4006 8.51405C10.8003 8.93037 11.3665 9.18016 11.9993 9.18016C12.6155 9.18016 13.1817 8.93037 13.598 8.51405C14.0143 8.11438 14.2641 7.54818 14.2641 6.91537C14.2641 6.29921 14.0143 5.73302 13.598 5.31669C13.1983 4.90037 12.6321 4.65058 11.9993 4.65058Z" fill="#122090"/>
    <path d="M17.2617 11.9446L18.7272 13.9429C18.8104 14.0428 18.7938 14.176 18.6605 14.2593C17.4282 15.2751 15.9961 15.9413 14.4973 16.291L17.5948 21.7531C17.678 21.9196 17.5781 22.1028 17.3949 22.1028H14.3641C14.2642 22.1028 14.1809 22.0362 14.1476 21.9529L11.9827 17.1236L9.81783 21.9529C9.78452 22.0529 9.70126 22.1028 9.60134 22.1028H6.5705C6.40397 22.1028 6.2874 21.903 6.37067 21.7531L9.46811 16.291C7.96935 15.9413 6.5372 15.2585 5.30488 14.2593C5.22161 14.176 5.20496 14.0428 5.27157 13.9429L6.73703 11.9446C6.8203 11.8446 6.98683 11.828 7.08674 11.9113C8.46894 13.0936 10.1675 13.8596 11.9994 13.8596C13.8312 13.8596 15.5298 13.0936 16.912 11.9113C17.0119 11.8113 17.1784 11.828 17.2617 11.9446Z" fill="#122090"/>
</svg>
