<svg width="24" height="24" viewBox="0 0 24 24" fill="none" xmlns="http://www.w3.org/2000/svg">
    <path d="M19.9558 3.08136C19.4265 2.59478 17.2839 1.03688 12.5077 1.01554C12.5077 1.01554 6.87794 0.674082 4.13346 3.19234C2.60544 4.72036 2.06764 6.95265 2.01216 9.72699C1.95667 12.4971 1.88411 17.6915 6.89074 19.1H6.89501L6.89074 21.2469C6.89074 21.2469 6.86086 22.1177 7.43281 22.2927C8.12426 22.5061 8.53401 21.8445 9.19558 21.1317C9.55838 20.739 10.0578 20.1671 10.4376 19.7275C13.8608 20.0134 16.4943 19.3561 16.793 19.2579C17.4845 19.0317 21.3984 18.5323 22.0344 13.3379C22.6917 7.99409 21.7143 4.60939 19.9558 3.08136ZM20.5363 12.9623C19.9985 17.2988 16.8272 17.572 16.2424 17.7598C15.9949 17.8409 13.6815 18.4171 10.7706 18.225C10.7706 18.225 8.6023 20.8415 7.92792 21.5201C7.82121 21.6268 7.69743 21.6695 7.61634 21.6482C7.5011 21.6183 7.46695 21.4817 7.47122 21.2811C7.47122 20.9908 7.48829 17.7086 7.48829 17.7086C7.48402 17.7086 7.48402 17.7086 7.48829 17.7086C3.24994 16.5348 3.4975 12.1129 3.54445 9.79955C3.5914 7.48617 4.02676 5.58681 5.32003 4.31061C7.63768 2.21064 12.4224 2.52222 12.4224 2.52222C16.4601 2.5393 18.3936 3.75574 18.8418 4.16122C20.3314 5.44169 21.0911 8.49348 20.5363 12.9623Z" fill="#122090"/>
    <path d="M14.4755 9.88064C14.3347 9.88064 14.2151 9.76966 14.2066 9.62454C14.1597 8.70687 13.7286 8.25871 12.8493 8.21176C12.6999 8.20322 12.5847 8.07518 12.5932 7.92579C12.6018 7.7764 12.7298 7.66116 12.8792 7.6697C14.0401 7.73372 14.6889 8.39956 14.7487 9.59467C14.7572 9.74405 14.642 9.8721 14.4926 9.87637C14.484 9.88064 14.4798 9.88064 14.4755 9.88064Z" fill="#122090"/>
    <path d="M15.8586 10.3417H15.8543C15.7049 10.3374 15.5854 10.2137 15.5897 10.0643C15.611 9.14234 15.3464 8.3954 14.783 7.78077C14.2238 7.16615 13.4513 6.83323 12.4312 6.76067C12.2818 6.74786 12.1708 6.61981 12.1836 6.47043C12.1964 6.32104 12.3245 6.21006 12.4739 6.22287C13.6263 6.30823 14.5354 6.70945 15.1842 7.41797C15.8372 8.13077 16.1531 9.02283 16.1317 10.0771C16.1275 10.2265 16.0037 10.3417 15.8586 10.3417Z" fill="#122090"/>
    <path d="M17.2751 10.8964C17.1257 10.8964 17.0062 10.7769 17.0062 10.6275C16.9934 8.97573 16.5196 7.7166 15.555 6.77333C14.6032 5.84285 13.3953 5.36908 11.974 5.35627C11.8246 5.35627 11.7051 5.2325 11.7051 5.08311C11.7051 4.93372 11.8289 4.81421 11.974 4.81421C13.5404 4.82701 14.8721 5.35201 15.9264 6.38492C16.9849 7.41783 17.5269 8.84342 17.544 10.619C17.5483 10.7727 17.4288 10.8964 17.2751 10.8964C17.2794 10.8964 17.2794 10.8964 17.2751 10.8964Z" fill="#122090"/>
    <path d="M12.9129 13.2226C12.9129 13.2226 13.2928 13.2568 13.4977 13.0049L13.8946 12.5055C14.0867 12.258 14.5519 12.1001 15.0043 12.3519C15.2562 12.4927 15.7129 12.7744 15.9946 12.9836C16.2976 13.2055 16.9122 13.7177 16.9165 13.722C17.211 13.9695 17.2793 14.3323 17.0787 14.7208C17.0787 14.7208 17.0787 14.725 17.0787 14.7293C16.8738 15.0921 16.5964 15.4336 16.2507 15.7494C16.2464 15.7494 16.2464 15.7537 16.2421 15.7537C15.9562 15.9927 15.6744 16.1293 15.4013 16.1592C15.3671 16.1677 15.3287 16.1677 15.2775 16.1677C15.158 16.1677 15.0385 16.1506 14.919 16.1122L14.9104 16.0994C14.4836 15.9799 13.7751 15.6811 12.5971 15.0281C11.8288 14.6055 11.1928 14.1744 10.6507 13.7433C10.3648 13.5171 10.0745 13.2653 9.77576 12.9665C9.76722 12.958 9.75442 12.9452 9.74588 12.9366C9.73735 12.9281 9.72454 12.9153 9.716 12.9068C9.70747 12.8982 9.69466 12.8854 9.68613 12.8769C9.67759 12.8683 9.66479 12.8555 9.65625 12.847C9.36174 12.5482 9.10565 12.258 8.87943 11.972C8.44834 11.4342 8.01725 10.794 7.59469 10.0257C6.94166 8.84341 6.64288 8.13488 6.52337 7.71233L6.51057 7.70379C6.47215 7.58428 6.45508 7.46477 6.45508 7.34526C6.45508 7.29404 6.45508 7.25563 6.46361 7.22148C6.49776 6.94405 6.63434 6.66661 6.8691 6.38064C6.8691 6.37637 6.87336 6.37637 6.87336 6.3721C7.18921 6.02211 7.53067 5.74894 7.89347 5.54407C7.89347 5.54407 7.89774 5.54407 7.90201 5.54407C8.28615 5.34346 8.64895 5.41175 8.90077 5.70626C8.90077 5.70626 9.41723 6.32515 9.63918 6.6282C9.84832 6.91417 10.13 7.3666 10.2709 7.61843C10.5227 8.07086 10.3648 8.5361 10.1172 8.72817L9.61784 9.12511C9.36601 9.32999 9.40016 9.70986 9.40016 9.70986C9.40016 9.70986 10.1386 12.5184 12.9129 13.2226Z" fill="#122090"/>
</svg>
