<svg width="32" height="32" viewBox="0 0 32 32" fill="none" xmlns="http://www.w3.org/2000/svg">
<rect width="32" height="32" rx="16" fill="#122090" fill-opacity="0.1"/>
<path d="M15.9997 17.3334C16.7361 17.3334 17.333 16.7365 17.333 16.0001C17.333 15.2637 16.7361 14.6667 15.9997 14.6667C15.2633 14.6667 14.6663 15.2637 14.6663 16.0001C14.6663 16.7365 15.2633 17.3334 15.9997 17.3334Z" stroke="#122090" stroke-width="2" stroke-linecap="round" stroke-linejoin="round"/>
<path d="M25.333 17.3334C26.0694 17.3334 26.6663 16.7365 26.6663 16.0001C26.6663 15.2637 26.0694 14.6667 25.333 14.6667C24.5966 14.6667 23.9997 15.2637 23.9997 16.0001C23.9997 16.7365 24.5966 17.3334 25.333 17.3334Z" stroke="#122090" stroke-width="2" stroke-linecap="round" stroke-linejoin="round"/>
<path d="M6.66634 17.3334C7.40272 17.3334 7.99967 16.7365 7.99967 16.0001C7.99967 15.2637 7.40272 14.6667 6.66634 14.6667C5.92996 14.6667 5.33301 15.2637 5.33301 16.0001C5.33301 16.7365 5.92996 17.3334 6.66634 17.3334Z" stroke="#122090" stroke-width="2" stroke-linecap="round" stroke-linejoin="round"/>
</svg>
