<svg width="24" height="24" viewBox="0 0 24 24" fill="none" xmlns="http://www.w3.org/2000/svg">
    <path d="M13.7823 12.9319L13.4018 13.3125V13.3125C11.7203 14.994 8.99399 14.994 7.31249 13.3125L4.54464 10.5446C2.86313 8.86313 2.86313 6.13687 4.54464 4.45536V4.45536C6.22614 2.77386 8.95241 2.77386 10.6339 4.45536L12.5714 6.39286L13.0558 6.87723" stroke="#122090" stroke-width="2" stroke-linecap="round"/>
    <path d="M10.8065 11.4788L11.1871 11.0982V11.0982C12.8686 9.41671 15.5949 9.41671 17.2764 11.0982L20.0442 13.8661C21.7257 15.5476 21.7257 18.2738 20.0442 19.9553V19.9553C18.3627 21.6368 15.6365 21.6368 13.955 19.9553L12.0175 18.0178L11.5331 17.5335" stroke="#122090" stroke-width="2" stroke-linecap="round"/>
</svg>
