<svg width="24" height="24" viewBox="0 0 24 24" fill="none" xmlns="http://www.w3.org/2000/svg">
    <path d="M13.7823 12.9319L13.4018 13.3125V13.3125C11.7203 14.994 8.99399 14.994 7.31249 13.3125L4.54464 10.5446C2.86313 8.86313 2.86313 6.13687 4.54464 4.45536V4.45536C6.22614 2.77386 8.95241 2.77386 10.6339 4.45536L12.5714 6.39286L13.0558 6.87723" stroke="white" stroke-width="2" stroke-linecap="round"/>
    <path d="M10.807 11.4787L11.1876 11.0982V11.0982C12.8691 9.41665 15.5954 9.41665 17.2769 11.0982L20.0447 13.866C21.7262 15.5475 21.7262 18.2738 20.0447 19.9553V19.9553C18.3632 21.6368 15.6369 21.6368 13.9554 19.9553L12.0179 18.0178L11.5336 17.5334" stroke="white" stroke-width="2" stroke-linecap="round"/>
</svg>
